<svg xmlns="http://www.w3.org/2000/svg" viewBox="0 0 277.38 41.63"><defs><style>.cls-1{fill:#1d1d1b;}</style></defs><g id="Capa_2" data-name="Capa 2"><g id="Capa_1-2" data-name="Capa 1"><path class="cls-1" d="M28.15,8.05A10.5,10.5,0,0,1,20,18.27a10.83,10.83,0,0,1-2.37.26h0a10.73,10.73,0,0,0-2.61.33A10.52,10.52,0,0,0,7.44,26.6a10.75,10.75,0,0,1-.28-2.42,10.46,10.46,0,0,1,6.9-9.85,10.37,10.37,0,0,1,3.58-.63h0a9.36,9.36,0,0,0,1.41-.1,10.49,10.49,0,0,0,8.79-8A10.06,10.06,0,0,1,28.15,8.05Z"/><path class="cls-1" d="M87.87,8.92h1.54C92.48,8.92,93,8.55,93,6h.65v7H93c0-2.59-.49-3-3.56-3H87.87v5c0,3.07.37,3.59,2.92,3.59v.65h-8.3V18.6c2.55,0,2.92-.52,2.92-3.59V5c0-3.07-.37-3.56-2.92-3.56V.8H97l.25,4.06h-.65l-.15-.62c-.4-1.6-.74-2.3-3.54-2.3H87.87Z"/><path class="cls-1" d="M106.07,18.39c2.15,0,3.75-1.23,3.75-3.91V10.12c0-3.08-.37-3.57-2.43-3.57V5.93h6.28v.62c-2,0-2.43.49-2.43,3.57v4.15a5.49,5.49,0,0,1-11,0V10.12c0-3.08-.37-3.57-2.43-3.57V5.93h7v.62c-2,0-2.43.49-2.43,3.57v4.36C102.44,17.16,103.92,18.39,106.07,18.39Z"/><path class="cls-1" d="M115,6.55V5.93h3.78l8.18,9.72V10.12c0-3.08-.37-3.57-2.43-3.57V5.93h6v.62c-2.06,0-2.43.49-2.43,3.57v9.62h-.59L118.53,9v6c0,3.07.37,3.59,2.43,3.59v.62h-6v-.62c2.06,0,2.43-.52,2.43-3.59V10.12C117.39,7,117,6.55,115,6.55Z"/><path class="cls-1" d="M132.27,18.63c2.06,0,2.43-.52,2.43-3.59V10.12c0-3.08-.37-3.57-2.43-3.57V5.93h6.52c5.23,0,7.5,3,7.5,6.65s-2.27,6.67-7.5,6.67h-6.52ZM138.88,7h-2v8.73c0,2,.21,2.34,1.75,2.34h.24c4.06,0,4.86-3.07,4.86-5.53S142.94,7,138.88,7Z"/><path class="cls-1" d="M150.78,16.27c-.76,1.81-.76,2.33,1.67,2.33v.65h-5.82V18.6c1.88,0,2.16-.37,3.17-2.67l4.52-10.52h.43l4.52,10.52c1,2.3,1.39,2.67,3,2.67v.65H155.4V18.6c2.21,0,2.43-.52,1.66-2.33l-.62-1.42h-5ZM153.92,9l-2,4.7H156Z"/><path class="cls-1" d="M174.37,19.25a4.25,4.25,0,0,0-.55-1.51,5.68,5.68,0,0,1-4.06,2,7.07,7.07,0,0,1-6.95-7.19,7.09,7.09,0,0,1,6.95-7.17,5.57,5.57,0,0,1,4.06,2,4.94,4.94,0,0,0,.55-1.51H175v5.32h-.61c-.58-2.86-2.21-4.67-4.58-4.67-3.45,0-4.46,3.41-4.46,6s1,6,4.46,6c2.37,0,4-1.81,4.58-4.67H175v5.35Z"/><path class="cls-1" d="M177.6,19.25v-.62c2.06,0,2.43-.52,2.43-3.59V10.12c0-3.08-.37-3.57-2.43-3.57V5.93h7v.62c-2.06,0-2.43.49-2.43,3.57V15c0,3.07.37,3.59,2.43,3.59v.62Z"/><path class="cls-1" d="M194.45,19.77a7.37,7.37,0,0,1-7.5-7.19,7.51,7.51,0,0,1,15,0A7.37,7.37,0,0,1,194.45,19.77Zm0-13.19c-3.66,0-5,3.35-5,6s1.32,6,5,6,5-3.32,5-6S198.08,6.58,194.45,6.58ZM197,1.81l-4.24,1.82-.15-.22,2.89-2.7A1.91,1.91,0,0,1,196.88,0a.88.88,0,0,1,.86.89A1.13,1.13,0,0,1,197,1.81Z"/><path class="cls-1" d="M204.2,6.55V5.93H208l8.18,9.72V10.12c0-3.08-.37-3.57-2.43-3.57V5.93h6v.62c-2.06,0-2.43.49-2.43,3.57v9.62h-.59L207.77,9v6c0,3.07.36,3.59,2.42,3.59v.62h-6v-.62c2.06,0,2.43-.52,2.43-3.59V10.12C206.63,7,206.26,6.55,204.2,6.55Z"/><path class="cls-1" d="M93.25,41.63A10.05,10.05,0,0,1,83,31.88a10.27,10.27,0,0,1,20.51,0A10,10,0,0,1,93.25,41.63ZM85.9,31.88c0,3.81,2,8.52,7.35,8.52s7.32-4.71,7.32-8.52-2-8.55-7.32-8.55S85.9,28.07,85.9,31.88Z"/><path class="cls-1" d="M112.84,40.49v.62h-7v-.62c2.06,0,2.43-.52,2.43-3.6V32c0-3.07-.37-3.56-2.43-3.56v-.62h6.36c3.17,0,4.92,1.63,4.92,3.81s-1.75,3.79-4.92,3.79h-1.75v1.5C110.41,40,110.78,40.49,112.84,40.49Zm-.68-11.59h-1.75v5.35h1.75a2.41,2.41,0,0,0,2.52-2.65A2.43,2.43,0,0,0,112.16,28.9Z"/><path class="cls-1" d="M126.4,41.63a7.37,7.37,0,0,1-7.5-7.2,7.51,7.51,0,0,1,15,0A7.37,7.37,0,0,1,126.4,41.63Zm0-13.19c-3.66,0-5,3.35-5,6s1.32,6,5,6,5-3.32,5-6S130,28.44,126.4,28.44Z"/><path class="cls-1" d="M145.62,37.63c1.23,1.45,2.64,2.65,4.12,2.86v.62H145.8l-4.18-5.72h-.86v1.5c0,3.08.37,3.6,2.43,3.6v.62h-7v-.62c2.06,0,2.43-.52,2.43-3.6V32c0-3.07-.37-3.56-2.43-3.56v-.62h6.36c3.17,0,4.92,1.63,4.92,3.81,0,1.88-1.41,3.42-3.72,3.72Zm-3.11-8.73h-1.75v5.35h1.75A2.41,2.41,0,0,0,145,31.6,2.43,2.43,0,0,0,142.51,28.9Z"/><path class="cls-1" d="M153.18,29c-2.83,0-3.07.52-3.44,2l-.16.61H149l.22-3.78h13.68l.21,3.78h-.61l-.15-.61c-.37-1.45-.62-2-3.45-2h-1.75v7.9c0,3.08.4,3.6,2.46,3.6v.62h-7.1v-.62c2.06,0,2.46-.52,2.46-3.6V29Z"/><path class="cls-1" d="M171.51,40.24c2.15,0,3.75-1.23,3.75-3.9V32c0-3.07-.37-3.56-2.43-3.56v-.62h6.27v.62c-2,0-2.42.49-2.42,3.56v4.15a5.49,5.49,0,0,1-11,0V32c0-3.07-.37-3.56-2.43-3.56v-.62h7v.62c-2,0-2.43.49-2.43,3.56v4.37C167.88,39,169.36,40.24,171.51,40.24Z"/><path class="cls-1" d="M180.4,28.41v-.62h3.78l8.18,9.72V32c0-3.07-.37-3.56-2.43-3.56v-.62h6v.62c-2.07,0-2.43.49-2.43,3.56V41.6h-.59L184,30.87v6c0,3.08.37,3.6,2.43,3.6v.62h-6v-.62c2.06,0,2.43-.52,2.43-3.6V32C182.83,28.9,182.46,28.41,180.4,28.41Z"/><path class="cls-1" d="M197.71,41.11v-.62c2.06,0,2.43-.52,2.43-3.6V32c0-3.07-.37-3.56-2.43-3.56v-.62h7v.62c-2.06,0-2.43.49-2.43,3.56v4.92c0,3.08.37,3.6,2.43,3.6v.62Z"/><path class="cls-1" d="M206.84,40.49c2.06,0,2.43-.52,2.43-3.6V32c0-3.07-.37-3.56-2.43-3.56v-.62h6.52c5.23,0,7.5,3,7.5,6.64s-2.27,6.68-7.5,6.68h-6.52Zm6.61-11.59h-2v8.73c0,2,.22,2.34,1.76,2.34h.24c4.06,0,4.86-3.08,4.86-5.54S217.51,28.9,213.45,28.9Z"/><path class="cls-1" d="M225.35,38.12c-.76,1.82-.76,2.34,1.66,2.34v.65H221.2v-.65c1.88,0,2.16-.37,3.17-2.68l4.52-10.51h.43l4.52,10.51c1,2.31,1.38,2.68,3,2.68v.65H230v-.65c2.21,0,2.43-.52,1.66-2.34L231,36.71h-5Zm3.14-7.25-2,4.7h4.06Z"/><path class="cls-1" d="M237.56,40.49c2.06,0,2.43-.52,2.43-3.6V32c0-3.07-.37-3.56-2.43-3.56v-.62h6.52c5.23,0,7.5,3,7.5,6.64s-2.27,6.68-7.5,6.68h-6.52Zm6.61-11.59h-2v8.73c0,2,.22,2.34,1.76,2.34h.24c4.06,0,4.86-3.08,4.86-5.54S248.23,28.9,244.17,28.9Z"/><path class="cls-1" d="M264.93,38l.15-.61h.62l-.25,3.72H254v-.62c2.06,0,2.43-.52,2.43-3.6V32c0-3.07-.37-3.56-2.43-3.56v-.62h10.76l.25,3.69h-.65l-.15-.61c-.34-1.42-.74-2-3.53-2h-2.07v4.58h.19c3.07,0,3.32-.37,3.32-2.43h.62v6h-.62c0-2-.25-2.43-3.32-2.43h-.19V36.4c0,3.08.37,3.57,2.43,3.57h.37C264.16,40,264.56,39.44,264.93,38Z"/><path class="cls-1" d="M273,41.63a6.42,6.42,0,0,1-3.45-1.14,2.52,2.52,0,0,0-.58,1.14h-.55V36.34H269c.25,2.61,1.91,4.09,4.21,4.09a2.11,2.11,0,0,0,2.37-2.06c0-1.08-.86-1.91-2.52-2.74L271,34.56a4.2,4.2,0,0,1-2.52-3.76,3.61,3.61,0,0,1,3.84-3.5,5,5,0,0,1,2.89.92,1.65,1.65,0,0,0,.49-.95h.59v5.2h-.62c-.18-1.85-1-4-3.23-4-1.2,0-2.21.64-2.21,1.78s.8,1.66,2.67,2.64L275,33.94a4,4,0,0,1,2.43,3.48A4.2,4.2,0,0,1,273,41.63Z"/><path class="cls-1" d="M19.67,24.47h0Z"/><path class="cls-1" d="M17.34,30.6c.14-.24.27-.48.39-.73C17.61,30.12,17.48,30.36,17.34,30.6Z"/><path class="cls-1" d="M32.32,26.15a10.44,10.44,0,0,0-11.5-4.26c0,.25,0,.48,0,.48,0,.26-.06.51-.09.77a21.58,21.58,0,0,1-1.35,5.06,9.15,9.15,0,0,1,1.14-.89,10.42,10.42,0,0,1,7.07-1.71l.47.07a10.49,10.49,0,0,1,5.42,2.65A10.16,10.16,0,0,0,32.32,26.15Z"/><path class="cls-1" d="M17.86,29.64l.12-.25Z"/><path class="cls-1" d="M53.08,40a4.57,4.57,0,0,1,0-9.14h0V29.82H31.32a5.65,5.65,0,0,0,0,11.3H53.09V40Z"/><path class="cls-1" d="M60.68,25.53a4.57,4.57,0,0,1,0-9.14h0V15.31H38.92a5.65,5.65,0,0,0,0,11.3H60.7V25.53Z"/><path class="cls-1" d="M67.93,11a4.57,4.57,0,0,1,0-9.14h0V.8H46.17a5.65,5.65,0,0,0,0,11.3H67.94V11Z"/><path class="cls-1" d="M28.15,8.05A10.5,10.5,0,0,1,20,18.27a10.83,10.83,0,0,1-2.37.26h0a10.73,10.73,0,0,0-2.61.33A10.52,10.52,0,0,0,7.44,26.6a10.75,10.75,0,0,1-.28-2.42,10.46,10.46,0,0,1,6.9-9.85,10.37,10.37,0,0,1,3.58-.63h0a9.36,9.36,0,0,0,1.41-.1,10.49,10.49,0,0,0,8.79-8A10.06,10.06,0,0,1,28.15,8.05Z"/><path class="cls-1" d="M17.64,18.54A10.58,10.58,0,0,0,20,18.28H20a10.83,10.83,0,0,1-2.37.26h0a10.73,10.73,0,0,0-2.61.33h0A10.91,10.91,0,0,1,17.64,18.54Z"/><path class="cls-1" d="M17.67,19.33a10.36,10.36,0,0,0-2.58.32h0a20.47,20.47,0,0,1-.15,4.2,20.92,20.92,0,0,1-3.39,8.85,21.36,21.36,0,0,1-2.19,2.72A21.17,21.17,0,0,1,0,41.11,21,21,0,0,0,11.22,37.3a20.71,20.71,0,0,0,2.45-2q.53-.49,1-1.05a20.74,20.74,0,0,0,2.49-3.36c.05-.09.1-.18.16-.27A20.86,20.86,0,0,0,19.92,23c0-.3.08-.6.11-.9a21.33,21.33,0,0,0,.07-3.09A11,11,0,0,1,17.67,19.33Z"/><path class="cls-1" d="M22.28,8.51a4.84,4.84,0,0,1-3.8,3.5,5,5,0,0,1-2.13-.09A4.84,4.84,0,0,1,12.94,6a5.06,5.06,0,0,1,.5-1.19,4.84,4.84,0,0,1,8.84,3.71Z"/></g></g></svg>