<svg xmlns="http://www.w3.org/2000/svg" viewBox="0 0 118.31 53.65"><defs><style>.cls-1{fill:#ffcc50;}</style></defs><g id="Capa_2" data-name="Capa 2"><g id="Capa_1-2" data-name="Capa 1"><path class="cls-1" d="M20.62,33.74h.94c1.87,0,2.17-.22,2.17-1.79h.39v4.28h-.39c0-1.57-.3-1.79-2.17-1.79h-.94v3c0,1.87.23,2.19,1.78,2.19V40h-5v-.39c1.55,0,1.77-.32,1.77-2.19V31.37c0-1.87-.22-2.17-1.77-2.17v-.4H26.2l.15,2.47H26l-.09-.37c-.24-1-.45-1.4-2.15-1.4H20.62Z"/><path class="cls-1" d="M31.7,39.51A2.13,2.13,0,0,0,34,37.13V34.47c0-1.87-.22-2.17-1.48-2.17v-.37h3.82v.37c-1.23,0-1.48.3-1.48,2.17V37a3.14,3.14,0,0,1-3.35,3.33A3.13,3.13,0,0,1,28.16,37V34.47c0-1.87-.22-2.17-1.48-2.17v-.37H31v.37c-1.24,0-1.48.3-1.48,2.17v2.66A2.08,2.08,0,0,0,31.7,39.51Z"/><path class="cls-1" d="M37.11,32.3v-.37h2.3l5,5.91V34.47c0-1.87-.23-2.17-1.48-2.17v-.37h3.65v.37c-1.26,0-1.48.3-1.48,2.17v5.86h-.36L39.28,33.8v3.67c0,1.87.22,2.19,1.48,2.19V40H37.11v-.37c1.25,0,1.48-.32,1.48-2.19v-3C38.59,32.6,38.36,32.3,37.11,32.3Z"/><path class="cls-1" d="M47.64,39.66c1.26,0,1.48-.32,1.48-2.19v-3c0-1.87-.22-2.17-1.48-2.17v-.37h4c3.18,0,4.57,1.83,4.57,4S54.79,40,51.61,40h-4Zm4-7.06H50.45v5.32c0,1.21.13,1.42,1.07,1.42h.15c2.47,0,2.95-1.87,2.95-3.37S54.14,32.6,51.67,32.6Z"/><path class="cls-1" d="M58.91,38.21c-.47,1.11-.47,1.43,1,1.43V40H56.38v-.39c1.14,0,1.31-.23,1.93-1.63l2.75-6.4h.26L64.07,38c.62,1.4.85,1.63,1.84,1.63V40H61.72v-.39c1.34,0,1.47-.32,1-1.43l-.38-.86H59.28Zm1.91-4.41-1.24,2.86h2.47Z"/><path class="cls-1" d="M73.26,40a2.48,2.48,0,0,0-.33-.92,3.45,3.45,0,0,1-2.47,1.24,4.37,4.37,0,0,1,0-8.74,3.41,3.41,0,0,1,2.47,1.23,2.9,2.9,0,0,0,.33-.91h.36v3.23h-.38c-.35-1.74-1.34-2.84-2.78-2.84-2.1,0-2.72,2.08-2.72,3.65s.62,3.65,2.72,3.65c1.44,0,2.43-1.11,2.78-2.85h.38V40Z"/><path class="cls-1" d="M75.23,40v-.37c1.25,0,1.48-.32,1.48-2.19v-3c0-1.87-.23-2.17-1.48-2.17v-.37h4.28v.37c-1.25,0-1.48.3-1.48,2.17v3c0,1.87.23,2.19,1.48,2.19V40Z"/><path class="cls-1" d="M85.48,40.35A4.37,4.37,0,1,1,90.05,36,4.48,4.48,0,0,1,85.48,40.35Zm0-8c-2.22,0-3,2-3,3.65s.81,3.65,3,3.65,3-2,3-3.65S87.69,32.32,85.48,32.32Zm1.57-2.9-2.58,1.1-.09-.13,1.76-1.64a1.15,1.15,0,0,1,.82-.43.52.52,0,0,1,.52.54A.7.7,0,0,1,87.05,29.42Z"/><path class="cls-1" d="M91.41,32.3v-.37h2.31l5,5.91V34.47c0-1.87-.22-2.17-1.47-2.17v-.37h3.64v.37c-1.25,0-1.47.3-1.47,2.17v5.86H99L93.59,33.8v3.67c0,1.87.22,2.19,1.47,2.19V40H91.41v-.37c1.26,0,1.48-.32,1.48-2.19v-3C92.89,32.6,92.67,32.3,91.41,32.3Z"/><path class="cls-1" d="M6.25,53.65a5.94,5.94,0,1,1,0-11.86,5.94,5.94,0,1,1,0,11.86ZM1.78,47.72C1.78,50,3,52.9,6.25,52.9S10.7,50,10.7,47.72s-1.23-5.2-4.45-5.2S1.78,45.4,1.78,47.72Z"/><path class="cls-1" d="M18.17,53v.37H13.89V53c1.25,0,1.47-.32,1.47-2.19v-3c0-1.87-.22-2.17-1.47-2.17v-.37h3.87c1.93,0,3,1,3,2.32s-1.06,2.3-3,2.3H16.69v.92C16.69,52.64,16.92,53,18.17,53Zm-.41-7.06H16.69v3.26h1.07a1.46,1.46,0,0,0,1.53-1.61A1.48,1.48,0,0,0,17.76,45.9Z"/><path class="cls-1" d="M26.42,53.65A4.37,4.37,0,1,1,31,49.27,4.49,4.49,0,0,1,26.42,53.65Zm0-8c-2.22,0-3,2-3,3.65s.81,3.65,3,3.65,3-2,3-3.65S28.63,45.62,26.42,45.62Z"/><path class="cls-1" d="M38.12,51.22A4.54,4.54,0,0,0,40.63,53v.37h-2.4l-2.54-3.48h-.53v.92c0,1.87.23,2.19,1.48,2.19v.37H32.36V53c1.25,0,1.47-.32,1.47-2.19v-3c0-1.87-.22-2.17-1.47-2.17v-.37h3.87c1.93,0,3,1,3,2.32A2.35,2.35,0,0,1,37,49.81ZM36.23,45.9H35.16v3.26h1.07a1.46,1.46,0,0,0,1.53-1.61A1.48,1.48,0,0,0,36.23,45.9Z"/><path class="cls-1" d="M42.72,46c-1.72,0-1.87.32-2.09,1.2l-.1.37h-.37l.13-2.3h8.33l.13,2.3h-.38l-.09-.37c-.23-.88-.37-1.2-2.1-1.2H45.12v4.81c0,1.87.24,2.19,1.49,2.19v.37H42.29V53c1.26,0,1.5-.32,1.5-2.19V46Z"/><path class="cls-1" d="M53.88,52.81a2.14,2.14,0,0,0,2.28-2.38V47.77c0-1.87-.23-2.17-1.48-2.17v-.37H58.5v.37c-1.24,0-1.48.3-1.48,2.17V50.3a3.34,3.34,0,0,1-6.68,0V47.77c0-1.87-.23-2.17-1.48-2.17v-.37h4.29v.37c-1.24,0-1.48.3-1.48,2.17v2.66A2.08,2.08,0,0,0,53.88,52.81Z"/><path class="cls-1" d="M59.28,45.6v-.37h2.31l5,5.91V47.77c0-1.87-.22-2.17-1.48-2.17v-.37h3.65v.37c-1.25,0-1.48.3-1.48,2.17v5.86H66.9L61.45,47.1v3.67c0,1.87.23,2.19,1.48,2.19v.37H59.28V53c1.26,0,1.48-.32,1.48-2.19v-3C60.76,45.9,60.54,45.6,59.28,45.6Z"/><path class="cls-1" d="M69.82,53.33V53c1.25,0,1.48-.32,1.48-2.19v-3c0-1.87-.23-2.17-1.48-2.17v-.37H74.1v.37c-1.25,0-1.47.3-1.47,2.17v3c0,1.87.22,2.19,1.47,2.19v.37Z"/><path class="cls-1" d="M75.38,53c1.25,0,1.48-.32,1.48-2.19v-3c0-1.87-.23-2.17-1.48-2.17v-.37h4c3.18,0,4.57,1.83,4.57,4s-1.39,4.06-4.57,4.06h-4Zm4-7.06H78.18v5.32c0,1.21.13,1.42,1.07,1.42h.15c2.47,0,3-1.87,3-3.37S81.87,45.9,79.4,45.9Z"/><path class="cls-1" d="M86.64,51.52c-.47,1.1-.47,1.42,1,1.42v.39H84.12v-.39c1.14,0,1.31-.23,1.92-1.63l2.75-6.4h.27l2.75,6.4c.61,1.4.84,1.63,1.83,1.63v.39H89.45v-.39c1.35,0,1.48-.32,1-1.42l-.37-.86H87Zm1.91-4.42L87.32,50h2.47Z"/><path class="cls-1" d="M94.07,53c1.26,0,1.48-.32,1.48-2.19v-3c0-1.87-.22-2.17-1.48-2.17v-.37h4c3.18,0,4.56,1.83,4.56,4s-1.38,4.06-4.56,4.06h-4Zm4-7.06H96.88v5.32c0,1.21.13,1.42,1.07,1.42h.14c2.47,0,3-1.87,3-3.37S100.56,45.9,98.09,45.9Z"/><path class="cls-1" d="M110.73,51.44l.09-.37h.37L111,53.33h-7V53c1.25,0,1.47-.32,1.47-2.19v-3c0-1.87-.22-2.17-1.47-2.17v-.37h6.55l.15,2.24h-.4l-.09-.37c-.21-.86-.45-1.2-2.15-1.2h-1.26v2.79H107c1.87,0,2-.22,2-1.48h.37v3.65H109c0-1.23-.15-1.48-2-1.48h-.12v1.09c0,1.87.23,2.17,1.48,2.17h.23C110.26,52.64,110.5,52.32,110.73,51.44Z"/><path class="cls-1" d="M115.63,53.65a4,4,0,0,1-2.1-.69,1.43,1.43,0,0,0-.35.69h-.34V50.43h.38a2.49,2.49,0,0,0,2.56,2.49,1.28,1.28,0,0,0,1.44-1.25c0-.66-.52-1.16-1.53-1.67l-1.28-.65a2.56,2.56,0,0,1-1.53-2.29,2.19,2.19,0,0,1,2.34-2.13,3.06,3.06,0,0,1,1.76.56,1.08,1.08,0,0,0,.3-.58h.35v3.16h-.37c-.11-1.12-.62-2.45-2-2.45-.73,0-1.34.4-1.34,1.09s.48,1,1.62,1.61l1.26.65a2.43,2.43,0,0,1,1.48,2.12A2.56,2.56,0,0,1,115.63,53.65Z"/><path class="cls-1" d="M50.59,13.69h0Z"/><path class="cls-1" d="M49.25,17.23l.22-.42Z"/><path class="cls-1" d="M57.91,14.66a6.06,6.06,0,0,0-2.51-2.14A6.29,6.29,0,0,0,53.71,12a6.15,6.15,0,0,0-2.45.16l0,.28-.06.45a12.11,12.11,0,0,1-.78,2.92,5.52,5.52,0,0,1,.66-.51,6.06,6.06,0,0,1,4.09-1l.27,0a6,6,0,0,1,3.13,1.53A5.91,5.91,0,0,0,57.91,14.66Z"/><path class="cls-1" d="M49.54,16.67a.61.61,0,0,0,.07-.14A.61.61,0,0,1,49.54,16.67Z"/><path class="cls-1" d="M69.91,22.69a2.65,2.65,0,0,1,0-5.29h0v-.62H57.33a3.27,3.27,0,1,0,0,6.53H69.92v-.62Z"/><path class="cls-1" d="M74.31,14.3a2.65,2.65,0,0,1,0-5.29h0V8.39H61.73a3.27,3.27,0,1,0,0,6.53H74.31V14.3Z"/><path class="cls-1" d="M78.5,5.91a2.65,2.65,0,0,1,0-5.29h0V0H65.92a3.27,3.27,0,1,0,0,6.53H78.51V5.91Z"/><path class="cls-1" d="M55.5,4.2a6.09,6.09,0,0,1-4.69,5.9,6.19,6.19,0,0,1-1.37.15h0a6.25,6.25,0,0,0-1.51.19,6.09,6.09,0,0,0-4.39,4.48,6.46,6.46,0,0,1-.16-1.4,6.09,6.09,0,0,1,4-5.7,6.12,6.12,0,0,1,2.07-.36h0a5.42,5.42,0,0,0,.81-.06,6,6,0,0,0,5.08-4.6A5.83,5.83,0,0,1,55.5,4.2Z"/><path class="cls-1" d="M49.42,10.26a6.1,6.1,0,0,0,1.36-.15h0a6.19,6.19,0,0,1-1.37.15h0a6.25,6.25,0,0,0-1.51.19h0A5.9,5.9,0,0,1,49.42,10.26Z"/><path class="cls-1" d="M49.44,10.71a6.16,6.16,0,0,0-1.5.19h0a11.68,11.68,0,0,1-.09,2.43,11.89,11.89,0,0,1-2,5.11A12,12,0,0,1,44.62,20a12.25,12.25,0,0,1-5.4,3.29,12.18,12.18,0,0,0,7.9-3.37c.21-.2.4-.4.59-.61a11.48,11.48,0,0,0,1.44-1.94,1.4,1.4,0,0,1,.1-.16,12.11,12.11,0,0,0,1.49-4.37l.06-.52a11.82,11.82,0,0,0,0-1.78A6.53,6.53,0,0,1,49.44,10.71Z"/><path class="cls-1" d="M52.1,4.46a2.8,2.8,0,0,1-2.19,2,2.9,2.9,0,0,1-1.24-.05A2.8,2.8,0,0,1,46.7,3,3,3,0,0,1,47,2.31,2.8,2.8,0,0,1,52.1,4.46Z"/></g></g></svg>