<svg xmlns="http://www.w3.org/2000/svg" viewBox="0 0 440.38 672.52"><defs><style>.cls-1{fill:#53924f;}.cls-2{fill:#ffcc50;}.cls-3{fill:#4aa851;}</style></defs><g id="Capa_2" data-name="Capa 2"><g id="Capa_1-2" data-name="Capa 1"><path class="cls-1" d="M-41,83.25H68.67A27.72,27.72,0,0,1,96.39,111v0a27.72,27.72,0,0,1-27.72,27.72H-41a0,0,0,0,1,0,0V83.25A0,0,0,0,1-41,83.25Z" transform="translate(-83.25 138.68) rotate(-90)"/><path class="cls-2" d="M-41,187.5H68.67a27.72,27.72,0,0,1,27.72,27.72v0a27.72,27.72,0,0,1-27.72,27.72H-41a0,0,0,0,1,0,0V187.5a0,0,0,0,1,0,0Z" transform="translate(-187.5 242.93) rotate(-90)"/><path class="cls-3" d="M-41,279.84H68.67a27.72,27.72,0,0,1,27.72,27.72v0a27.72,27.72,0,0,1-27.72,27.72H-41a0,0,0,0,1,0,0V279.84a0,0,0,0,1,0,0Z" transform="translate(-279.84 335.27) rotate(-90)"/><path class="cls-2" d="M13.93,41H123.56a27.72,27.72,0,0,1,27.72,27.72v0a27.72,27.72,0,0,1-27.72,27.72H13.93a0,0,0,0,1,0,0V41A0,0,0,0,1,13.93,41Z" transform="translate(13.93 151.27) rotate(-90)"/><path class="cls-3" d="M13.93,145.2H123.56a27.72,27.72,0,0,1,27.72,27.72v0a27.72,27.72,0,0,1-27.72,27.72H13.93a0,0,0,0,1,0,0V145.2a0,0,0,0,1,0,0Z" transform="translate(-90.32 255.52) rotate(-90)"/><path class="cls-1" d="M13.93,237.55H123.56a27.72,27.72,0,0,1,27.72,27.72v0A27.72,27.72,0,0,1,123.56,293H13.93a0,0,0,0,1,0,0V237.55A0,0,0,0,1,13.93,237.55Z" transform="matrix(0, -1, 1, 0, -182.66, 347.86)"/><path class="cls-1" d="M69.14,83.25H178.77A27.72,27.72,0,0,1,206.49,111v0a27.72,27.72,0,0,1-27.72,27.72H69.14a0,0,0,0,1,0,0V83.25A0,0,0,0,1,69.14,83.25Z" transform="translate(26.85 248.78) rotate(-90)"/><path class="cls-2" d="M69.14,187.5H178.77a27.72,27.72,0,0,1,27.72,27.72v0a27.72,27.72,0,0,1-27.72,27.72H69.14a0,0,0,0,1,0,0V187.5A0,0,0,0,1,69.14,187.5Z" transform="translate(-77.4 353.03) rotate(-90)"/><path class="cls-3" d="M69.14,279.84H178.77a27.72,27.72,0,0,1,27.72,27.72v0a27.72,27.72,0,0,1-27.72,27.72H69.14a0,0,0,0,1,0,0V279.84A0,0,0,0,1,69.14,279.84Z" transform="translate(-169.74 445.37) rotate(-90)"/><path class="cls-2" d="M124,41H233.66a27.72,27.72,0,0,1,27.72,27.72v0a27.72,27.72,0,0,1-27.72,27.72H124a0,0,0,0,1,0,0V41a0,0,0,0,1,0,0Z" transform="translate(124.03 261.37) rotate(-90)"/><path class="cls-3" d="M124,145.2H233.66a27.72,27.72,0,0,1,27.72,27.72v0a27.72,27.72,0,0,1-27.72,27.72H124a0,0,0,0,1,0,0V145.2a0,0,0,0,1,0,0Z" transform="translate(19.78 365.62) rotate(-90)"/><path class="cls-1" d="M124,237.55H233.66a27.72,27.72,0,0,1,27.72,27.72v0A27.72,27.72,0,0,1,233.66,293H124a0,0,0,0,1,0,0V237.55A0,0,0,0,1,124,237.55Z" transform="translate(-72.56 457.96) rotate(-90)"/><path class="cls-1" d="M179,83.25H288.64A27.72,27.72,0,0,1,316.35,111v0a27.72,27.72,0,0,1-27.72,27.72H179a0,0,0,0,1,0,0V83.25a0,0,0,0,1,0,0Z" transform="translate(136.72 358.64) rotate(-90)"/><path class="cls-2" d="M179,187.5H288.64a27.72,27.72,0,0,1,27.72,27.72v0a27.72,27.72,0,0,1-27.72,27.72H179a0,0,0,0,1,0,0V187.5A0,0,0,0,1,179,187.5Z" transform="translate(32.47 462.89) rotate(-90)"/><path class="cls-3" d="M179,279.84H288.64a27.72,27.72,0,0,1,27.72,27.72v0a27.72,27.72,0,0,1-27.72,27.72H179a0,0,0,0,1,0,0V279.84a0,0,0,0,1,0,0Z" transform="translate(-59.88 555.24) rotate(-90)"/><path class="cls-2" d="M233.89,41H343.52a27.72,27.72,0,0,1,27.72,27.72v0a27.72,27.72,0,0,1-27.72,27.72H233.89a0,0,0,0,1,0,0V41a0,0,0,0,1,0,0Z" transform="translate(233.89 371.24) rotate(-90)"/><path class="cls-3" d="M233.89,145.2H343.52a27.72,27.72,0,0,1,27.72,27.72v0a27.72,27.72,0,0,1-27.72,27.72H233.89a0,0,0,0,1,0,0V145.2a0,0,0,0,1,0,0Z" transform="translate(129.64 475.49) rotate(-90)"/><path class="cls-1" d="M233.89,237.55H343.52a27.72,27.72,0,0,1,27.72,27.72v0A27.72,27.72,0,0,1,343.52,293H233.89a0,0,0,0,1,0,0V237.55A0,0,0,0,1,233.89,237.55Z" transform="translate(37.3 567.83) rotate(-90)"/><path class="cls-1" d="M289.11,83.25H398.73A27.72,27.72,0,0,1,426.45,111v0a27.72,27.72,0,0,1-27.72,27.72H289.11a0,0,0,0,1,0,0V83.25A0,0,0,0,1,289.11,83.25Z" transform="translate(246.82 468.74) rotate(-90)"/><path class="cls-2" d="M289.11,187.5H398.73a27.72,27.72,0,0,1,27.72,27.72v0a27.72,27.72,0,0,1-27.72,27.72H289.11a0,0,0,0,1,0,0V187.5a0,0,0,0,1,0,0Z" transform="translate(142.57 572.99) rotate(-90)"/><path class="cls-3" d="M289.11,279.84H398.73a27.72,27.72,0,0,1,27.72,27.72v0a27.72,27.72,0,0,1-27.72,27.72H289.11a0,0,0,0,1,0,0V279.84a0,0,0,0,1,0,0Z" transform="translate(50.22 665.33) rotate(-90)"/><path class="cls-2" d="M344,41H453.62a27.72,27.72,0,0,1,27.72,27.72v0a27.72,27.72,0,0,1-27.72,27.72H344a0,0,0,0,1,0,0V41a0,0,0,0,1,0,0Z" transform="translate(343.99 481.34) rotate(-90)"/><path class="cls-3" d="M344,145.2H453.62a27.72,27.72,0,0,1,27.72,27.72v0a27.72,27.72,0,0,1-27.72,27.72H344a0,0,0,0,1,0,0V145.2a0,0,0,0,1,0,0Z" transform="translate(239.74 585.58) rotate(-90)"/><path class="cls-1" d="M344,237.55H453.62a27.72,27.72,0,0,1,27.72,27.72v0A27.72,27.72,0,0,1,453.62,293H344a0,0,0,0,1,0,0V237.55a0,0,0,0,1,0,0Z" transform="translate(147.4 677.93) rotate(-90)"/><path class="cls-1" d="M-41,379.54H68.67a27.72,27.72,0,0,1,27.72,27.72v0A27.72,27.72,0,0,1,68.67,435H-41a0,0,0,0,1,0,0V379.54a0,0,0,0,1,0,0Z" transform="translate(-379.54 434.97) rotate(-90)"/><path class="cls-2" d="M-41,483.79H68.67A27.72,27.72,0,0,1,96.39,511.5v0a27.72,27.72,0,0,1-27.72,27.72H-41a0,0,0,0,1,0,0V483.79A0,0,0,0,1-41,483.79Z" transform="translate(-483.79 539.22) rotate(-90)"/><path class="cls-3" d="M-41,576.13H68.67a27.72,27.72,0,0,1,27.72,27.72v0a27.72,27.72,0,0,1-27.72,27.72H-41a0,0,0,0,1,0,0V576.13A0,0,0,0,1-41,576.13Z" transform="translate(-576.13 631.56) rotate(-90)"/><path class="cls-2" d="M13.93,337.24H123.56A27.72,27.72,0,0,1,151.27,365v0a27.72,27.72,0,0,1-27.72,27.72H13.93a0,0,0,0,1,0,0V337.24A0,0,0,0,1,13.93,337.24Z" transform="translate(-282.36 447.56) rotate(-90)"/><path class="cls-3" d="M13.93,441.49H123.56a27.72,27.72,0,0,1,27.72,27.72v0a27.72,27.72,0,0,1-27.72,27.72H13.93a0,0,0,0,1,0,0V441.49A0,0,0,0,1,13.93,441.49Z" transform="translate(-386.61 551.81) rotate(-90)"/><path class="cls-1" d="M13.93,533.84H123.56a27.72,27.72,0,0,1,27.72,27.72v0a27.72,27.72,0,0,1-27.72,27.72H13.93a0,0,0,0,1,0,0V533.84a0,0,0,0,1,0,0Z" transform="matrix(0, -1, 1, 0, -478.95, 644.15)"/><path class="cls-1" d="M69.14,379.54H178.77a27.72,27.72,0,0,1,27.72,27.72v0A27.72,27.72,0,0,1,178.77,435H69.14a0,0,0,0,1,0,0V379.54a0,0,0,0,1,0,0Z" transform="translate(-269.44 545.07) rotate(-90)"/><path class="cls-2" d="M69.14,483.79H178.77a27.72,27.72,0,0,1,27.72,27.72v0a27.72,27.72,0,0,1-27.72,27.72H69.14a0,0,0,0,1,0,0V483.79a0,0,0,0,1,0,0Z" transform="translate(-373.69 649.32) rotate(-90)"/><path class="cls-3" d="M69.14,576.13H178.77a27.72,27.72,0,0,1,27.72,27.72v0a27.72,27.72,0,0,1-27.72,27.72H69.14a0,0,0,0,1,0,0V576.13a0,0,0,0,1,0,0Z" transform="translate(-466.03 741.66) rotate(-90)"/><path class="cls-2" d="M124,337.24H233.66A27.72,27.72,0,0,1,261.37,365v0a27.72,27.72,0,0,1-27.72,27.72H124a0,0,0,0,1,0,0V337.24A0,0,0,0,1,124,337.24Z" transform="translate(-172.26 557.66) rotate(-90)"/><path class="cls-3" d="M124,441.49H233.66a27.72,27.72,0,0,1,27.72,27.72v0a27.72,27.72,0,0,1-27.72,27.72H124a0,0,0,0,1,0,0V441.49a0,0,0,0,1,0,0Z" transform="translate(-276.51 661.91) rotate(-90)"/><path class="cls-1" d="M124,533.84H233.66a27.72,27.72,0,0,1,27.72,27.72v0a27.72,27.72,0,0,1-27.72,27.72H124a0,0,0,0,1,0,0V533.84a0,0,0,0,1,0,0Z" transform="translate(-368.85 754.25) rotate(-90)"/><path class="cls-1" d="M179,379.54H288.64a27.72,27.72,0,0,1,27.72,27.72v0A27.72,27.72,0,0,1,288.64,435H179a0,0,0,0,1,0,0V379.54a0,0,0,0,1,0,0Z" transform="translate(-159.57 654.93) rotate(-90)"/><path class="cls-2" d="M179,483.79H288.64a27.72,27.72,0,0,1,27.72,27.72v0a27.72,27.72,0,0,1-27.72,27.72H179a0,0,0,0,1,0,0V483.79a0,0,0,0,1,0,0Z" transform="translate(-263.82 759.18) rotate(-90)"/><path class="cls-3" d="M179,576.13H288.64a27.72,27.72,0,0,1,27.72,27.72v0a27.72,27.72,0,0,1-27.72,27.72H179a0,0,0,0,1,0,0V576.13a0,0,0,0,1,0,0Z" transform="translate(-356.17 851.53) rotate(-90)"/><path class="cls-2" d="M233.89,337.24H343.52A27.72,27.72,0,0,1,371.24,365v0a27.72,27.72,0,0,1-27.72,27.72H233.89a0,0,0,0,1,0,0V337.24a0,0,0,0,1,0,0Z" transform="translate(-62.4 667.53) rotate(-90)"/><path class="cls-3" d="M233.89,441.49H343.52a27.72,27.72,0,0,1,27.72,27.72v0a27.72,27.72,0,0,1-27.72,27.72H233.89a0,0,0,0,1,0,0V441.49A0,0,0,0,1,233.89,441.49Z" transform="translate(-166.65 771.78) rotate(-90)"/><path class="cls-1" d="M233.89,533.84H343.52a27.72,27.72,0,0,1,27.72,27.72v0a27.72,27.72,0,0,1-27.72,27.72H233.89a0,0,0,0,1,0,0V533.84a0,0,0,0,1,0,0Z" transform="translate(-258.99 864.12) rotate(-90)"/><path class="cls-1" d="M289.11,379.54H398.73a27.72,27.72,0,0,1,27.72,27.72v0A27.72,27.72,0,0,1,398.73,435H289.11a0,0,0,0,1,0,0V379.54a0,0,0,0,1,0,0Z" transform="translate(-49.47 765.03) rotate(-90)"/><path class="cls-2" d="M289.11,483.79H398.73a27.72,27.72,0,0,1,27.72,27.72v0a27.72,27.72,0,0,1-27.72,27.72H289.11a0,0,0,0,1,0,0V483.79A0,0,0,0,1,289.11,483.79Z" transform="translate(-153.72 869.28) rotate(-90)"/><path class="cls-3" d="M289.11,576.13H398.73a27.72,27.72,0,0,1,27.72,27.72v0a27.72,27.72,0,0,1-27.72,27.72H289.11a0,0,0,0,1,0,0V576.13A0,0,0,0,1,289.11,576.13Z" transform="translate(-246.07 961.62) rotate(-90)"/><path class="cls-2" d="M344,337.24H453.62A27.72,27.72,0,0,1,481.34,365v0a27.72,27.72,0,0,1-27.72,27.72H344a0,0,0,0,1,0,0V337.24a0,0,0,0,1,0,0Z" transform="translate(47.7 777.63) rotate(-90)"/><path class="cls-3" d="M344,441.49H453.62a27.72,27.72,0,0,1,27.72,27.72v0a27.72,27.72,0,0,1-27.72,27.72H344a0,0,0,0,1,0,0V441.49a0,0,0,0,1,0,0Z" transform="translate(-56.55 881.87) rotate(-90)"/><path class="cls-1" d="M344,533.84H453.62a27.72,27.72,0,0,1,27.72,27.72v0a27.72,27.72,0,0,1-27.72,27.72H344a0,0,0,0,1,0,0V533.84a0,0,0,0,1,0,0Z" transform="translate(-148.89 974.22) rotate(-90)"/></g></g></svg>