<svg xmlns="http://www.w3.org/2000/svg" viewBox="0 0 83.21 96.3"><defs><style>.cls-1{fill:#fff;}</style></defs><g id="Capa_2" data-name="Capa 2"><g id="Capa_1-2" data-name="Capa 1"><path class="cls-1" d="M49,54.89v0Z"/><path class="cls-1" d="M43.15,70.15c.34-.59.67-1.19,1-1.81C43.82,69,43.49,69.56,43.15,70.15Z"/><path class="cls-1" d="M80.44,59.07a26.1,26.1,0,0,0-28.63-10.6c0,.63-.09,1.2-.09,1.2q-.11,1-.24,1.92a52.27,52.27,0,0,1-3.36,12.58A28.39,28.39,0,0,1,51,62a26,26,0,0,1,17.61-4.24c.38,0,.77.1,1.15.17a26,26,0,0,1,13.49,6.59A26.27,26.27,0,0,0,80.44,59.07Z"/><path class="cls-1" d="M44.44,67.75l.3-.62Z"/><path class="cls-1" d="M70.06,14.05A26.1,26.1,0,0,1,49.88,39.46a26.61,26.61,0,0,1-5.9.67h-.07A26,26,0,0,0,18.53,60.19a26.05,26.05,0,0,1,25.38-32.1H44a25.44,25.44,0,0,0,3.51-.24A26.09,26.09,0,0,0,69.36,8,26,26,0,0,1,70.06,14.05Z"/><path class="cls-1" d="M43.9,40.14a26.09,26.09,0,0,0,5.85-.65l.13,0h0a26.61,26.61,0,0,1-5.9.67h-.07a26.33,26.33,0,0,0-6.51.81h0A26.25,26.25,0,0,1,43.9,40.14Z"/><path class="cls-1" d="M44,42.11a25.77,25.77,0,0,0-6.44.8h0a52.52,52.52,0,0,1-.39,10.45,52,52,0,0,1-8.43,22,51.67,51.67,0,0,1-5.46,6.77A52.47,52.47,0,0,1,0,96.3a52,52,0,0,0,27.93-9.48,53.16,53.16,0,0,0,6.09-5c.87-.84,1.72-1.71,2.54-2.61a52.2,52.2,0,0,0,6.19-8.37l.4-.68a52,52,0,0,0,6.43-18.8c.1-.76.19-1.51.27-2.26A53.25,53.25,0,0,0,50,41.42,27.67,27.67,0,0,1,44,42.11Z"/><path class="cls-1" d="M55.45,15.17A12,12,0,1,1,32.21,8.91a11.71,11.71,0,0,1,1.24-3,12,12,0,0,1,22,9.23Z"/></g></g></svg>