<svg xmlns="http://www.w3.org/2000/svg" viewBox="0 0 401.2 112.45"><defs><style>.cls-1{fill:#53924f;}.cls-2{fill:#4aa851;}.cls-3{fill:#7bcb79;}.cls-4{fill:#bd7f32;}.cls-5{fill:#ffb607;}.cls-6{fill:#ffcc50;}.cls-7{fill:#4b4846;}.cls-8{fill:#acadaf;}.cls-9{fill:#efefef;}</style></defs><g id="Capa_2" data-name="Capa 2"><g id="Capa_1-2" data-name="Capa 1"><path class="cls-1" d="M34.92,17.46v95H0v-95a17.46,17.46,0,0,1,34.92,0Z"/><path class="cls-2" d="M80.71,17.46v95H45.79v-95a17.46,17.46,0,1,1,34.92,0Z"/><path class="cls-3" d="M126.49,17.46v95H91.57v-95a17.46,17.46,0,1,1,34.92,0Z"/><path class="cls-4" d="M172.28,17.46v95H137.36v-95a17.46,17.46,0,0,1,34.92,0Z"/><path class="cls-5" d="M218.06,17.46v95H183.14v-95a17.46,17.46,0,1,1,34.92,0Z"/><path class="cls-6" d="M263.85,17.46v95H228.93v-95a17.46,17.46,0,0,1,34.92,0Z"/><path class="cls-7" d="M309.63,17.46v95H274.71v-95a17.46,17.46,0,1,1,34.92,0Z"/><path class="cls-8" d="M355.42,17.46v95H320.5v-95a17.46,17.46,0,0,1,34.92,0Z"/><path class="cls-9" d="M401.2,17.46v95H366.28v-95a17.46,17.46,0,1,1,34.92,0Z"/></g></g></svg>