<svg xmlns="http://www.w3.org/2000/svg" viewBox="0 0 117.77 112.88"><defs><style>.cls-1{fill:#615d59;}</style></defs><g id="Capa_2" data-name="Capa 2"><g id="Capa_1-2" data-name="Capa 1"><path class="cls-1" d="M18.7,112.88c-10.3,0-18.7-8-18.7-17.74S8.4,77.39,18.7,77.39s18.64,8,18.64,17.75S28.94,112.88,18.7,112.88ZM5.32,95.14c0,6.94,3.69,15.5,13.38,15.5S32,102.08,32,95.14,28.32,79.58,18.7,79.58,5.32,88.2,5.32,95.14Z"/><path class="cls-1" d="M18.7,74.15C8.4,74.15,0,66.15,0,56.41S8.4,38.66,18.7,38.66s18.64,8,18.64,17.75S28.94,74.15,18.7,74.15ZM5.32,56.41c0,6.94,3.69,15.5,13.38,15.5S32,63.35,32,56.41,28.32,40.85,18.7,40.85,5.32,49.47,5.32,56.41Z"/><path class="cls-1" d="M58.87,112.88c-10.3,0-18.7-8-18.7-17.74s8.4-17.75,18.7-17.75,18.64,8,18.64,17.75S69.11,112.88,58.87,112.88ZM45.49,95.14c0,6.94,3.69,15.5,13.38,15.5s13.32-8.56,13.32-15.5S68.5,79.58,58.87,79.58,45.49,88.2,45.49,95.14Z"/><path class="cls-1" d="M58.87,74.15c-10.3,0-18.7-8-18.7-17.74s8.4-17.75,18.7-17.75,18.64,8,18.64,17.75S69.11,74.15,58.87,74.15ZM45.49,56.41c0,6.94,3.69,15.5,13.38,15.5s13.32-8.56,13.32-15.5S68.5,40.85,58.87,40.85,45.49,49.47,45.49,56.41Z"/><path class="cls-1" d="M99.13,112.88c-10.3,0-18.69-8-18.69-17.74s8.39-17.75,18.69-17.75,18.64,8,18.64,17.75S109.38,112.88,99.13,112.88ZM85.76,95.14c0,6.94,3.69,15.5,13.37,15.5s13.33-8.56,13.33-15.5-3.7-15.56-13.33-15.56S85.76,88.2,85.76,95.14Z"/><path class="cls-1" d="M99.13,74.15c-10.3,0-18.69-8-18.69-17.74s8.39-17.75,18.69-17.75,18.64,8,18.64,17.75S109.38,74.15,99.13,74.15ZM85.76,56.41c0,6.94,3.69,15.5,13.37,15.5s13.33-8.56,13.33-15.5-3.7-15.56-13.33-15.56S85.76,49.47,85.76,56.41Z"/><path class="cls-1" d="M18.7,35.49C8.4,35.49,0,27.48,0,17.74S8.4,0,18.7,0,37.34,8,37.34,17.74,28.94,35.49,18.7,35.49ZM5.32,17.74c0,7,3.69,15.51,13.38,15.51S32,24.69,32,17.74,28.32,2.18,18.7,2.18,5.32,10.8,5.32,17.74Z"/><path class="cls-1" d="M58.87,35.49c-10.3,0-18.7-8-18.7-17.75S48.57,0,58.87,0,77.51,8,77.51,17.74,69.11,35.49,58.87,35.49ZM45.49,17.74c0,7,3.69,15.51,13.38,15.51s13.32-8.56,13.32-15.51S68.5,2.18,58.87,2.18,45.49,10.8,45.49,17.74Z"/><path class="cls-1" d="M99.13,35.49c-10.3,0-18.69-8-18.69-17.75S88.83,0,99.13,0s18.64,8,18.64,17.74S109.38,35.49,99.13,35.49ZM85.76,17.74c0,7,3.69,15.51,13.37,15.51s13.33-8.56,13.33-15.51S108.76,2.18,99.13,2.18,85.76,10.8,85.76,17.74Z"/></g></g></svg>