<svg xmlns="http://www.w3.org/2000/svg" viewBox="0 0 272.55 40.9"><defs><style>.cls-1{fill:#4b4846;}</style></defs><g id="Capa_2" data-name="Capa 2"><g id="Capa_1-2" data-name="Capa 1"><path class="cls-1" d="M27.66,7.91a10.3,10.3,0,0,1-8,10,10.4,10.4,0,0,1-2.33.26h0a10.28,10.28,0,0,0-10,7.92,10.36,10.36,0,0,1,3.46-10.31,10.19,10.19,0,0,1,3-1.74,10.3,10.3,0,0,1,3.52-.62h0a10.58,10.58,0,0,0,1.39-.09,10.3,10.3,0,0,0,8.63-7.83A9.79,9.79,0,0,1,27.66,7.91Z"/><path class="cls-1" d="M86.34,8.76h1.51c3,0,3.5-.36,3.5-2.9H92v6.92h-.64c0-2.54-.48-2.9-3.5-2.9H86.34v4.86c0,3,.36,3.54,2.87,3.54v.63H81.05v-.63c2.51,0,2.87-.52,2.87-3.54V4.92c0-3-.36-3.5-2.87-3.5V.79H95.34l.24,4H95l-.15-.6c-.4-1.57-.73-2.27-3.48-2.27h-5Z"/><path class="cls-1" d="M104.22,18.07c2.12,0,3.69-1.21,3.69-3.84V9.94c0-3-.36-3.5-2.39-3.5V5.83h6.17v.61c-2,0-2.39.48-2.39,3.5V14a5.4,5.4,0,0,1-10.79,0V9.94c0-3-.36-3.5-2.38-3.5V5.83H103v.61c-2,0-2.38.48-2.38,3.5v4.29C100.66,16.86,102.11,18.07,104.22,18.07Z"/><path class="cls-1" d="M113,6.44V5.83h3.71l8,9.55V9.94c0-3-.36-3.5-2.39-3.5V5.83h5.89v.61c-2,0-2.38.48-2.38,3.5V19.4h-.58L116.46,8.85v5.92c0,3,.36,3.54,2.39,3.54v.6H113v-.6c2,0,2.38-.51,2.38-3.54V9.94C115.34,6.92,115,6.44,113,6.44Z"/><path class="cls-1" d="M130,18.31c2,0,2.38-.51,2.38-3.54V9.94c0-3-.36-3.5-2.38-3.5V5.83h6.4c5.14,0,7.37,3,7.37,6.53s-2.23,6.55-7.37,6.55H130Zm6.49-11.39h-2V15.5c0,2,.21,2.3,1.72,2.3h.24c4,0,4.78-3,4.78-5.44S140.45,6.92,136.46,6.92Z"/><path class="cls-1" d="M148.16,16c-.76,1.78-.76,2.3,1.63,2.3v.63h-5.71v-.63c1.84,0,2.11-.36,3.11-2.63l4.44-10.33h.42l4.44,10.33c1,2.27,1.36,2.63,3,2.63v.63h-6.76v-.63c2.17,0,2.38-.52,1.63-2.3l-.61-1.39h-5Zm3.08-7.13-2,4.62h4Z"/><path class="cls-1" d="M171.33,18.91a4.15,4.15,0,0,0-.54-1.48,5.57,5.57,0,0,1-4,2A7,7,0,0,1,160,12.36a7,7,0,0,1,6.83-7,5.46,5.46,0,0,1,4,2,5,5,0,0,0,.54-1.48h.57v5.23h-.6c-.57-2.81-2.18-4.59-4.5-4.59-3.39,0-4.38,3.35-4.38,5.89s1,5.89,4.38,5.89c2.32,0,3.93-1.78,4.5-4.59h.6v5.25Z"/><path class="cls-1" d="M174.5,18.91v-.6c2,0,2.39-.51,2.39-3.54V9.94c0-3-.36-3.5-2.39-3.5V5.83h6.92v.61c-2,0-2.39.48-2.39,3.5v4.83c0,3,.37,3.54,2.39,3.54v.6Z"/><path class="cls-1" d="M191.06,19.43a7.25,7.25,0,0,1-7.37-7.07,7.38,7.38,0,0,1,14.74,0A7.25,7.25,0,0,1,191.06,19.43Zm0-13c-3.6,0-4.9,3.29-4.9,5.89s1.3,5.89,4.9,5.89S196,15,196,12.36,194.62,6.47,191.06,6.47Zm2.54-4.69-4.17,1.79-.15-.22L192.12.7a1.84,1.84,0,0,1,1.33-.7.86.86,0,0,1,.84.88A1.12,1.12,0,0,1,193.6,1.78Z"/><path class="cls-1" d="M200.64,6.44V5.83h3.71l8,9.55V9.94c0-3-.36-3.5-2.39-3.5V5.83h5.89v.61c-2,0-2.38.48-2.38,3.5V19.4h-.58L204.14,8.85v5.92c0,3,.36,3.54,2.39,3.54v.6h-5.89v-.6c2,0,2.38-.51,2.38-3.54V9.94C203,6.92,202.66,6.44,200.64,6.44Z"/><path class="cls-1" d="M91.62,40.9a9.87,9.87,0,0,1-10.09-9.58,10.09,10.09,0,0,1,20.15,0A9.87,9.87,0,0,1,91.62,40.9ZM84.4,31.32c0,3.75,2,8.37,7.22,8.37s7.19-4.62,7.19-8.37-2-8.39-7.19-8.39S84.4,27.58,84.4,31.32Z"/><path class="cls-1" d="M110.87,39.78v.61H104v-.61c2,0,2.39-.51,2.39-3.53V31.42c0-3-.36-3.51-2.39-3.51v-.6h6.26c3.11,0,4.83,1.6,4.83,3.74s-1.72,3.72-4.83,3.72h-1.73v1.48C108.48,39.27,108.85,39.78,110.87,39.78Zm-.66-11.39h-1.73v5.26h1.73a2.36,2.36,0,0,0,2.47-2.6A2.39,2.39,0,0,0,110.21,28.39Z"/><path class="cls-1" d="M124.2,40.9a7.25,7.25,0,0,1-7.38-7.07,7.38,7.38,0,0,1,14.75,0A7.25,7.25,0,0,1,124.2,40.9Zm0-13c-3.6,0-4.9,3.29-4.9,5.89s1.3,5.89,4.9,5.89,4.89-3.26,4.89-5.89S127.76,27.94,124.2,27.94Z"/><path class="cls-1" d="M143.08,37c1.21,1.42,2.6,2.6,4,2.81v.61h-3.87l-4.11-5.62h-.85v1.48c0,3,.37,3.53,2.39,3.53v.61h-6.92v-.61c2,0,2.39-.51,2.39-3.53V31.42c0-3-.36-3.51-2.39-3.51v-.6H140c3.11,0,4.83,1.6,4.83,3.74,0,1.85-1.39,3.36-3.65,3.66ZM140,28.39H138.3v5.26H140a2.36,2.36,0,0,0,2.47-2.6A2.39,2.39,0,0,0,140,28.39Z"/><path class="cls-1" d="M150.51,28.49c-2.78,0-3,.51-3.38,1.93L147,31h-.61l.21-3.71H160l.21,3.71h-.6l-.16-.6c-.36-1.42-.6-1.93-3.38-1.93h-1.72v7.76c0,3,.39,3.53,2.42,3.53v.61h-7v-.61c2,0,2.41-.51,2.41-3.53V28.49Z"/><path class="cls-1" d="M168.52,39.54c2.11,0,3.68-1.21,3.68-3.83V31.42c0-3-.36-3.51-2.38-3.51v-.6H176v.6c-2,0-2.39.48-2.39,3.51v4.07a5.39,5.39,0,0,1-10.78,0V31.42c0-3-.36-3.51-2.39-3.51v-.6h6.92v.6c-2,0-2.39.48-2.39,3.51v4.29C165,38.33,166.4,39.54,168.52,39.54Z"/><path class="cls-1" d="M177.25,27.91v-.6H181l8,9.54V31.42c0-3-.36-3.51-2.38-3.51v-.6h5.89v.6c-2,0-2.39.48-2.39,3.51v9.45h-.57l-8.79-10.54v5.92c0,3,.36,3.53,2.38,3.53v.61h-5.89v-.61c2,0,2.39-.51,2.39-3.53V31.42C179.64,28.39,179.28,27.91,177.25,27.91Z"/><path class="cls-1" d="M194.26,40.39v-.61c2,0,2.39-.51,2.39-3.53V31.42c0-3-.36-3.51-2.39-3.51v-.6h6.92v.6c-2,0-2.39.48-2.39,3.51v4.83c0,3,.37,3.53,2.39,3.53v.61Z"/><path class="cls-1" d="M203.24,39.78c2,0,2.38-.51,2.38-3.53V31.42c0-3-.36-3.51-2.38-3.51v-.6h6.4c5.14,0,7.37,3,7.37,6.52s-2.23,6.56-7.37,6.56h-6.4Zm6.49-11.39h-2V37c0,2,.21,2.3,1.72,2.3h.24c4,0,4.77-3,4.77-5.44S213.72,28.39,209.73,28.39Z"/><path class="cls-1" d="M221.42,37.46c-.75,1.78-.75,2.29,1.64,2.29v.64h-5.71v-.64c1.84,0,2.11-.36,3.11-2.62l4.44-10.34h.42l4.44,10.34c1,2.26,1.36,2.62,3,2.62v.64H226v-.64c2.17,0,2.38-.51,1.63-2.29L227,36.07H222Zm3.09-7.13-2,4.62h4Z"/><path class="cls-1" d="M233.42,39.78c2,0,2.39-.51,2.39-3.53V31.42c0-3-.37-3.51-2.39-3.51v-.6h6.41c5.13,0,7.37,3,7.37,6.52s-2.24,6.56-7.37,6.56h-6.41Zm6.5-11.39h-2V37c0,2,.21,2.3,1.72,2.3h.25c4,0,4.77-3,4.77-5.44S243.9,28.39,239.92,28.39Z"/><path class="cls-1" d="M260.31,37.34l.15-.61h.61l-.25,3.66h-11.3v-.61c2,0,2.39-.51,2.39-3.53V31.42c0-3-.36-3.51-2.39-3.51v-.6H260.1l.24,3.62h-.63l-.16-.6c-.33-1.39-.72-1.94-3.47-1.94h-2V32.9h.18c3,0,3.26-.37,3.26-2.39h.6V36.4h-.6c0-2-.24-2.39-3.26-2.39h-.18v1.76c0,3,.36,3.5,2.38,3.5h.37C259.55,39.27,260,38.76,260.31,37.34Z"/><path class="cls-1" d="M268.23,40.9a6.26,6.26,0,0,1-3.39-1.12,2.49,2.49,0,0,0-.57,1.12h-.55V35.71h.61a4,4,0,0,0,4.14,4,2.06,2.06,0,0,0,2.32-2c0-1.06-.84-1.87-2.47-2.69L266.26,34a4.11,4.11,0,0,1-2.47-3.68,3.55,3.55,0,0,1,3.77-3.45,4.88,4.88,0,0,1,2.84.91,1.74,1.74,0,0,0,.49-.94h.57V31.9h-.61c-.18-1.81-1-4-3.17-4-1.18,0-2.17.64-2.17,1.75s.78,1.63,2.63,2.6l2,1.06a3.91,3.91,0,0,1,2.39,3.41A4.13,4.13,0,0,1,268.23,40.9Z"/><path class="cls-1" d="M19.33,24h0Z"/><path class="cls-1" d="M17,30.06l.39-.71Z"/><path class="cls-1" d="M31.76,25.69a10.3,10.3,0,0,0-11.31-4.18c0,.25,0,.47,0,.47l-.09.76a21.09,21.09,0,0,1-1.33,5,9.65,9.65,0,0,1,1.12-.88,10.19,10.19,0,0,1,7-1.67,3.62,3.62,0,0,1,.46.06,10.26,10.26,0,0,1,5.32,2.6A10.46,10.46,0,0,0,31.76,25.69Z"/><path class="cls-1" d="M17.55,29.12l.12-.25Z"/><path class="cls-1" d="M52.15,39.34a4.49,4.49,0,0,1,0-9h0V29.3H30.78a5.55,5.55,0,0,0,0,11.1H52.17V39.34Z"/><path class="cls-1" d="M59.63,25.08a4.49,4.49,0,0,1,0-9h0V15H38.25a5.55,5.55,0,1,0,0,11.1H59.64V25.08Z"/><path class="cls-1" d="M66.75,10.83a4.5,4.5,0,0,1,0-9h0V.79H45.37a5.55,5.55,0,1,0,0,11.09H66.76V10.83Z"/><path class="cls-1" d="M27.66,7.91a10.3,10.3,0,0,1-8,10,10.4,10.4,0,0,1-2.33.26h0a10.28,10.28,0,0,0-10,7.92,10.36,10.36,0,0,1,3.46-10.31,10.19,10.19,0,0,1,3-1.74,10.3,10.3,0,0,1,3.52-.62h0a10.58,10.58,0,0,0,1.39-.09,10.3,10.3,0,0,0,8.63-7.83A9.79,9.79,0,0,1,27.66,7.91Z"/><path class="cls-1" d="M17.33,18.22A10.29,10.29,0,0,0,19.64,18h.05a10.4,10.4,0,0,1-2.33.26h0a10.32,10.32,0,0,0-2.56.32h0A10.94,10.94,0,0,1,17.33,18.22Z"/><path class="cls-1" d="M17.36,19a10.16,10.16,0,0,0-2.54.32h0a21.29,21.29,0,0,1-.15,4.13,20.54,20.54,0,0,1-3.33,8.69A21.36,21.36,0,0,1,9.18,34.8,20.6,20.6,0,0,1,0,40.39a20.61,20.61,0,0,0,11-3.74,20.69,20.69,0,0,0,2.4-2c.35-.33.68-.68,1-1a21.49,21.49,0,0,0,2.44-3.3,2.54,2.54,0,0,1,.16-.28,20.55,20.55,0,0,0,2.54-7.42c0-.3.07-.59.1-.89a20.51,20.51,0,0,0,.07-3A10.62,10.62,0,0,1,17.36,19Z"/><path class="cls-1" d="M21.89,8.36a4.74,4.74,0,0,1-3.73,3.44,4.76,4.76,0,0,1-5.44-5.92,4.67,4.67,0,0,1,.49-1.17,4.75,4.75,0,0,1,8.68,3.65Z"/></g></g></svg>