<svg xmlns="http://www.w3.org/2000/svg" viewBox="0 0 1940.93 880.18"><defs><style>.cls-1{fill:#615d59;}.cls-2{fill:#4aa851;}.cls-3{fill:#7bcb79;}.cls-4{fill:#53924f;}.cls-5{fill:#96c121;}</style></defs><g id="Capa_2" data-name="Capa 2"><g id="isologo_vertical" data-name="isologo vertical"><path class="cls-1" d="M338.32,553.59h15.35c30.7,0,35.61-3.69,35.61-29.47h6.45v70.3h-6.45c0-25.79-4.91-29.47-35.61-29.47H338.32v49.43c0,30.69,3.68,35.91,29.16,35.91v6.45H284.59v-6.45c25.48,0,29.17-5.22,29.17-35.91V514.6c0-30.7-3.69-35.61-29.17-35.61v-6.44H429.8l2.46,40.52h-6.45l-1.54-6.14c-4-16-7.36-23-35.3-23H338.32Z"/><path class="cls-1" d="M520.06,648.14c21.5,0,37.46-12.28,37.46-39V565.56c0-30.7-3.69-35.6-24.26-35.6v-6.15h62.63V530c-20.26,0-24.25,4.9-24.25,35.6V607c0,35.91-24.87,54.64-54.95,54.64S462,642.92,462,607V565.56c0-30.7-3.68-35.6-24.25-35.6v-6.15h70.3V530c-20.26,0-24.25,4.9-24.25,35.6v43.59C483.84,635.86,498.58,648.14,520.06,648.14Z"/><path class="cls-1" d="M608.8,530v-6.15h37.76l81.66,97V565.56c0-30.7-3.68-35.6-24.25-35.6v-6.15h59.86V530c-20.57,0-24.25,4.9-24.25,35.6v96.09h-5.83L644.41,554.52v60.16c0,30.7,3.69,35.92,24.25,35.92v6.14H608.8V650.6c20.57,0,24.25-5.22,24.25-35.92V565.56C633.05,534.86,629.37,530,608.8,530Z"/><path class="cls-1" d="M781.65,650.6c20.57,0,24.26-5.22,24.26-35.92V565.56c0-30.7-3.69-35.6-24.26-35.6v-6.15h65.08c52.19,0,74.91,30.09,74.91,66.31,0,36.53-22.72,66.62-74.91,66.62H781.65Zm66-115.74H827.7v87.19c0,20,2.15,23.33,17.5,23.33h2.45c40.53,0,48.51-30.7,48.51-55.26C896.16,565.87,888.18,534.86,847.65,534.86Z"/><path class="cls-1" d="M966.47,627c-7.67,18.11-7.67,23.33,16.58,23.33v6.45H925v-6.45c18.73,0,21.49-3.68,31.62-26.71l45.13-105h4.3l45.13,105c10.13,23,13.81,26.71,30.08,26.71v6.45h-68.76v-6.45c22.1,0,24.25-5.22,16.57-23.33L1023,612.84H972.62Zm31.32-72.44-20.26,47h40.52Z"/><path class="cls-1" d="M1202,656.74c-1.23-5.53-3.38-12.89-5.52-15-9.22,11.36-25.79,20.26-40.53,20.26-38.37,0-69.38-32.23-69.38-71.83,0-39,31-71.53,69.38-71.53,14.74,0,31.31,8.6,40.53,20.27,2.14-2.46,4.29-10.13,5.52-15.05h5.83v53.11h-6.14c-5.83-28.55-22.1-46.66-45.74-46.66-34.38,0-44.51,34.07-44.51,59.86,0,26.1,10.13,59.86,44.51,59.86,23.64,0,39.91-18.11,45.74-46.66h6.14v53.42Z"/><path class="cls-1" d="M1234.2,656.74V650.6c20.56,0,24.25-5.22,24.25-35.92V565.56c0-30.7-3.69-35.6-24.25-35.6v-6.15h70.3V530c-20.57,0-24.26,4.9-24.26,35.6v49.12c0,30.7,3.69,35.92,24.26,35.92v6.14Z"/><path class="cls-1" d="M1402.43,662c-41.13,0-74.9-32.23-74.9-71.83,0-39,33.77-71.53,74.9-71.53s74.91,32.54,74.91,71.53C1477.34,629.72,1443.57,662,1402.43,662Zm0-131.69c-36.53,0-49.73,33.46-49.73,59.86,0,26.71,13.2,59.86,49.73,59.86,36.23,0,49.74-33.15,49.74-59.86C1452.17,563.72,1438.66,530.26,1402.43,530.26Zm25.79-47.58-42.36,18.11-1.54-2.15,28.86-27c4.91-4.61,8.29-7.07,13.51-7.07,5.83,0,8.59,5.22,8.59,8.91C1435.28,478.07,1430.67,481.76,1428.22,482.68Z"/><path class="cls-1" d="M1499.76,530v-6.15h37.76l81.66,97V565.56c0-30.7-3.68-35.6-24.25-35.6v-6.15h59.86V530c-20.57,0-24.25,4.9-24.25,35.6v96.09h-5.83l-89.34-107.13v60.16c0,30.7,3.69,35.92,24.26,35.92v6.14h-59.87V650.6c20.57,0,24.25-5.22,24.25-35.92V565.56C1524,534.86,1520.33,530,1499.76,530Z"/><path class="cls-1" d="M102.53,880.18C46.05,880.18,0,836.28,0,782.86s46.05-97.3,102.53-97.3c56.18,0,102.23,43.89,102.23,97.3S158.71,880.18,102.53,880.18ZM29.16,782.86c0,38.08,20.26,85,73.37,85,52.8,0,73.07-47,73.07-85s-20.27-85.33-73.07-85.33C49.42,697.53,29.16,744.8,29.16,782.86Z"/><path class="cls-1" d="M298.1,868.83V875H227.81v-6.14c20.56,0,24.25-5.22,24.25-35.92V783.79c0-30.7-3.69-35.61-24.25-35.61V742h63.54c31.62,0,49.12,16.27,49.12,38.07,0,21.18-17.5,37.76-49.12,37.76h-17.5v15C273.85,863.61,277.54,868.83,298.1,868.83Zm-6.75-115.74h-17.5v53.42h17.5c17.19,0,25.18-12,25.18-26.4C316.53,765.37,308.54,753.09,291.35,753.09Z"/><path class="cls-1" d="M433.49,880.18c-41.13,0-74.9-32.23-74.9-71.83,0-39,33.77-71.53,74.9-71.53s74.91,32.54,74.91,71.53C508.4,848,474.63,880.18,433.49,880.18Zm0-131.69c-36.53,0-49.73,33.46-49.73,59.86,0,26.7,13.2,59.86,49.73,59.86,36.23,0,49.73-33.16,49.73-59.86C483.22,782,469.72,748.49,433.49,748.49Z"/><path class="cls-1" d="M625.38,840.28c12.28,14.42,26.4,26.4,41.13,28.55V875H627.22l-41.75-57.1h-8.6v15c0,30.7,3.69,35.92,24.25,35.92V875h-70.3v-6.14c20.57,0,24.25-5.22,24.25-35.92V783.79c0-30.7-3.68-35.61-24.25-35.61V742h63.55c31.62,0,49.12,16.27,49.12,38.07,0,18.72-14.12,34.07-37.15,37.14Zm-31-87.19h-17.5v53.42h17.5c17.19,0,25.17-12,25.17-26.4C619.54,765.37,611.56,753.09,594.37,753.09Z"/><path class="cls-1" d="M700.9,754c-28.24,0-30.69,5.22-34.38,19.65L665,779.8h-6.14L661,742H797.61l2.14,37.76h-6.13l-1.54-6.14C788.4,759.23,785.94,754,757.7,754H740.2v78.9c0,30.7,4,35.92,24.56,35.92V875H693.85v-6.14c20.56,0,24.55-5.22,24.55-35.92V754Z"/><path class="cls-1" d="M883.88,866.37c21.49,0,37.45-12.28,37.45-39V783.79c0-30.7-3.68-35.61-24.25-35.61V742H959.7v6.14c-20.26,0-24.25,4.91-24.25,35.61v41.45c0,35.91-24.86,54.64-55,54.64s-54.64-18.73-54.64-54.64V783.79c0-30.7-3.69-35.61-24.25-35.61V742h70.3v6.14c-20.26,0-24.26,4.91-24.26,35.61v43.59C847.65,854.09,862.39,866.37,883.88,866.37Z"/><path class="cls-1" d="M972.62,748.18V742h37.76l81.65,97V783.79c0-30.7-3.68-35.61-24.25-35.61V742h59.87v6.14c-20.57,0-24.26,4.91-24.26,35.61v96.09h-5.83l-89.33-107.14v60.17c0,30.7,3.68,35.92,24.25,35.92V875H972.62v-6.14c20.56,0,24.25-5.22,24.25-35.92V783.79C996.87,753.09,993.18,748.18,972.62,748.18Z"/><path class="cls-1" d="M1145.47,875v-6.14c20.56,0,24.25-5.22,24.25-35.92V783.79c0-30.7-3.69-35.61-24.25-35.61V742h70.3v6.14c-20.57,0-24.26,4.91-24.26,35.61v49.12c0,30.7,3.69,35.92,24.26,35.92V875Z"/><path class="cls-1" d="M1236.65,868.83c20.57,0,24.25-5.22,24.25-35.92V783.79c0-30.7-3.68-35.61-24.25-35.61V742h65.08c52.19,0,74.91,30.08,74.91,66.31,0,36.53-22.72,66.62-74.91,66.62h-65.08Zm66-115.74h-20v87.19c0,20,2.15,23.33,17.5,23.33h2.46c40.53,0,48.51-30.7,48.51-55.26C1351.16,784.09,1343.18,753.09,1302.65,753.09Z"/><path class="cls-1" d="M1421.47,845.18c-7.67,18.12-7.67,23.33,16.58,23.33V875h-58v-6.46c18.73,0,21.49-3.67,31.62-26.7l45.12-105h4.3l45.13,105c10.13,23,13.81,26.7,30.09,26.7V875h-68.77v-6.46c22.1,0,24.25-5.21,16.58-23.33L1478,831.07h-50.35Zm31.31-72.44-20.26,47h40.53Z"/><path class="cls-1" d="M1543.36,868.83c20.57,0,24.25-5.22,24.25-35.92V783.79c0-30.7-3.68-35.61-24.25-35.61V742h65.08c52.19,0,74.91,30.08,74.91,66.31,0,36.53-22.72,66.62-74.91,66.62h-65.08Zm66-115.74h-19.95v87.19c0,20,2.15,23.33,17.5,23.33h2.45c40.52,0,48.51-30.7,48.51-55.26C1657.87,784.09,1649.88,753.09,1609.36,753.09Z"/><path class="cls-1" d="M1816.6,844l1.53-6.13h6.14L1821.81,875H1707v-6.14c20.57,0,24.25-5.22,24.25-35.92V783.79c0-30.7-3.68-35.61-24.25-35.61V742h107.45l2.45,36.84h-6.45l-1.53-6.14c-3.38-14.12-7.37-19.65-35.3-19.65h-20.57v45.74h1.84c30.7,0,33.16-3.68,33.16-24.25h6.13v59.86h-6.13c0-20.26-2.46-24.25-33.16-24.25h-1.84V828c0,30.71,3.68,35.62,24.25,35.62H1781C1808.92,863.61,1812.91,858.38,1816.6,844Z"/><path class="cls-1" d="M1897,880.18c-16,0-28.86-7.67-34.39-11.35a24.42,24.42,0,0,0-5.83,11.35h-5.53v-52.8h6.15c2.45,26.1,19,40.83,42,40.83,13.2,0,23.64-7.37,23.64-20.57,0-10.74-8.6-19-25.17-27.32l-20.88-10.74c-14.73-7.67-25.17-20.26-25.17-37.46,0-19.34,16-35,38.37-35a49.56,49.56,0,0,1,28.86,9.2,17.15,17.15,0,0,0,4.91-9.51h5.83V788.7h-6.13c-1.85-18.42-10.14-40.21-32.24-40.21-12,0-22.1,6.44-22.1,17.8,0,10.74,8,16.57,26.71,26.4l20.56,10.75c17.5,8.9,24.25,22.71,24.25,34.68C1940.93,863.3,1921,880.18,1897,880.18Z"/><path class="cls-2" d="M854.81,73.13a45.88,45.88,0,1,1-88.59-23.9A45.35,45.35,0,0,1,771,37.91a45.89,45.89,0,0,1,83.85,35.22Z"/><path class="cls-3" d="M910.5,68.83a99.33,99.33,0,0,1-99.41,99.41h-.29a99.31,99.31,0,0,0-96.74,76.46A99.38,99.38,0,0,1,810.8,122.35h.29a100,100,0,0,0,13.37-.89,99.49,99.49,0,0,0,83.37-75.58A99.21,99.21,0,0,1,910.5,68.83Z"/><path class="cls-2" d="M833.45,202.41c-.27,2.87-.62,5.73-1,8.6a198.2,198.2,0,0,1-24.5,71.67c-.52.87-1,1.74-1.53,2.62a199.22,199.22,0,0,1-23.59,31.87q-4.68,5.15-9.69,9.95a200.86,200.86,0,0,1-23.2,19.1,198.14,198.14,0,0,1-106.48,36.13A199.23,199.23,0,0,0,786,171.36a99.41,99.41,0,0,1,24.79-3.12h.29a99.21,99.21,0,0,0,22.49-2.56c.17,1.76.29,3.52.4,5.28A199.53,199.53,0,0,1,833.45,202.41Z"/><path class="cls-4" d="M960.64,261a99.24,99.24,0,0,0-51.43-25.11c-1.46-.26-2.93-.46-4.39-.64a99.52,99.52,0,0,0-96.89,47.4A198.2,198.2,0,0,0,832.43,211c.4-2.87.75-5.73,1-8.6a99.45,99.45,0,0,1,116.6,38A100.1,100.1,0,0,1,960.64,261Z"/><path class="cls-5" d="M1147,372.23a43.36,43.36,0,0,1,0-86.71h.11V275.29H940.57a53.58,53.58,0,1,0,0,107.16h206.52V372.22Z"/><path class="cls-4" d="M1147,372.23a43.36,43.36,0,0,1,0-86.71h.11V275.29H940.57a53.58,53.58,0,1,0,0,107.16h206.52V372.22Z"/><path class="cls-2" d="M1219.11,234.58a43.36,43.36,0,0,1,0-86.71h.11V137.65H1012.69a53.58,53.58,0,1,0,0,107.16h206.53V234.58Z"/><path class="cls-3" d="M1287.88,96.93a43.35,43.35,0,0,1,0-86.7h.11V0H1081.46a53.58,53.58,0,1,0,0,107.16H1288V96.93Z"/></g></g></svg>