<svg xmlns="http://www.w3.org/2000/svg" viewBox="0 0 2631.35 394.9"><defs><style>.cls-1{fill:#615d59;}.cls-2{fill:#4aa851;}.cls-3{fill:#7bcb79;}.cls-4{fill:#53924f;}.cls-5{fill:#96c121;}</style></defs><g id="Capa_2" data-name="Capa 2"><g id="isologo_vertical" data-name="isologo vertical"><path class="cls-1" d="M833.55,84.59h14.58c29.17,0,33.84-3.5,33.84-28h6.13v66.8H882c0-24.51-4.67-28-33.84-28H833.55v47c0,29.16,3.5,34.12,27.71,34.12v6.13H782.5v-6.13c24.21,0,27.71-5,27.71-34.12V47.55c0-29.17-3.5-33.84-27.71-33.84V7.59h138l2.34,38.5h-6.13l-1.46-5.84c-3.79-15.16-7-21.87-33.54-21.87H833.55Z"/><path class="cls-1" d="M1006.24,174.43c20.42,0,35.58-11.67,35.58-37V96c0-29.17-3.5-33.84-23-33.84V56.3h59.51v5.83c-19.26,0-23,4.67-23,33.84v39.37c0,34.13-23.62,51.93-52.21,51.93s-51.92-17.8-51.92-51.93V96c0-29.17-3.5-33.84-23-33.84V56.3h66.79v5.83c-19.25,0-23,4.67-23,33.84v41.42C971.82,162.76,985.82,174.43,1006.24,174.43Z"/><path class="cls-1" d="M1090.55,62.13V56.3h35.88L1204,148.47V96c0-29.17-3.5-33.84-23-33.84V56.3h56.88v5.83c-19.54,0-23,4.67-23,33.84v91.3h-5.54L1124.39,85.46v57.18c0,29.17,3.5,34.13,23,34.13v5.83h-56.88v-5.83c19.54,0,23-5,23-34.13V96C1113.59,66.8,1110.09,62.13,1090.55,62.13Z"/><path class="cls-1" d="M1254.78,176.77c19.55,0,23-5,23-34.13V96c0-29.17-3.5-33.84-23-33.84V56.3h61.84c49.59,0,71.18,28.58,71.18,63,0,34.71-21.59,63.3-71.18,63.3h-61.84Zm62.72-110h-19v82.84c0,19,2,22.17,16.62,22.17h2.34c38.5,0,46.08-29.17,46.08-52.51C1363.58,96.26,1356,66.8,1317.5,66.8Z"/><path class="cls-1" d="M1430.39,154.3c-7.29,17.21-7.29,22.17,15.75,22.17v6.13H1391v-6.13c17.79,0,20.42-3.5,30-25.37l42.88-99.76H1468l42.88,99.76c9.62,21.87,13.13,25.37,28.58,25.37v6.13h-65.33v-6.13c21,0,23-5,15.75-22.17l-5.83-13.41h-47.84Zm29.76-68.84L1440.9,130.1h38.5Z"/><path class="cls-1" d="M1654.13,182.6c-1.17-5.25-3.21-12.25-5.25-14.3-8.75,10.8-24.5,19.26-38.5,19.26-36.46,0-65.92-30.63-65.92-68.26,0-37,29.46-68,65.92-68,14,0,29.75,8.17,38.5,19.25,2-2.34,4.08-9.63,5.25-14.29h5.54v50.46h-5.83c-5.54-27.13-21-44.34-43.46-44.34-32.67,0-42.3,32.38-42.3,56.88,0,24.8,9.63,56.88,42.3,56.88,22.46,0,37.92-17.21,43.46-44.33h5.83V182.6Z"/><path class="cls-1" d="M1684.77,182.6v-5.83c19.54,0,23-5,23-34.13V96c0-29.17-3.5-33.84-23-33.84V56.3h66.79v5.83c-19.54,0-23,4.67-23,33.84v46.67c0,29.17,3.5,34.13,23,34.13v5.83Z"/><path class="cls-1" d="M1844.62,187.56c-39.09,0-71.17-30.63-71.17-68.26,0-37,32.08-68,71.17-68s71.17,30.92,71.17,68C1915.79,156.93,1883.7,187.56,1844.62,187.56Zm0-125.14c-34.72,0-47.26,31.8-47.26,56.88,0,25.38,12.54,56.88,47.26,56.88,34.42,0,47.25-31.5,47.25-56.88C1891.87,94.22,1879,62.42,1844.62,62.42Zm24.5-45.21-40.26,17.21-1.45-2,27.41-25.67c4.67-4.37,7.88-6.71,12.84-6.71,5.54,0,8.17,5,8.17,8.46C1875.83,12.84,1871.45,16.34,1869.12,17.21Z"/><path class="cls-1" d="M1937.09,62.13V56.3H1973l77.59,92.17V96c0-29.17-3.5-33.84-23-33.84V56.3h56.87v5.83c-19.54,0-23,4.67-23,33.84v91.3h-5.54L1970.93,85.46v57.18c0,29.17,3.5,34.13,23,34.13v5.83h-56.88v-5.83c19.55,0,23-5,23-34.13V96C1960.13,66.8,1956.64,62.13,1937.09,62.13Z"/><path class="cls-1" d="M884.6,394.9c-53.67,0-97.42-41.71-97.42-92.47S830.93,210,884.6,210c53.38,0,97.13,41.71,97.13,92.46S938,394.9,884.6,394.9Zm-69.71-92.47c0,36.17,19.25,80.8,69.71,80.8,50.17,0,69.42-44.63,69.42-80.8s-19.25-81.09-69.42-81.09C834.14,221.34,814.89,266.26,814.89,302.43Z"/><path class="cls-1" d="M1070.42,384.11v5.83h-66.8v-5.83c19.55,0,23.05-5,23.05-34.13V303.31c0-29.17-3.5-33.84-23.05-33.84v-5.83H1064c30,0,46.67,15.46,46.67,36.17,0,20.12-16.62,35.88-46.67,35.88h-16.62V350C1047.38,379.15,1050.88,384.11,1070.42,384.11Zm-6.42-110h-16.62v50.75H1064c16.34,0,23.92-11.37,23.92-25.08C1087.92,285.81,1080.34,274.14,1064,274.14Z"/><path class="cls-1" d="M1199.06,394.9c-39.09,0-71.17-30.63-71.17-68.26,0-37,32.08-68,71.17-68s71.17,30.92,71.17,68C1270.23,364.27,1238.15,394.9,1199.06,394.9Zm0-125.14c-34.71,0-47.25,31.8-47.25,56.88,0,25.38,12.54,56.88,47.25,56.88,34.42,0,47.25-31.5,47.25-56.88C1246.31,301.56,1233.48,269.76,1199.06,269.76Z"/><path class="cls-1" d="M1381.38,357c11.66,13.71,25.08,25.08,39.09,27.13v5.83h-37.34l-39.67-54.25h-8.17V350c0,29.17,3.5,34.13,23,34.13v5.83h-66.8v-5.83c19.54,0,23-5,23-34.13V303.31c0-29.17-3.5-33.84-23-33.84v-5.83h60.38c30,0,46.67,15.46,46.67,36.17,0,17.79-13.42,32.37-35.3,35.29Zm-29.46-82.84h-16.63v50.75h16.63c16.33,0,23.91-11.37,23.91-25.08C1375.83,285.81,1368.25,274.14,1351.92,274.14Z"/><path class="cls-1" d="M1453.14,275c-26.83,0-29.17,5-32.67,18.67l-1.46,5.84h-5.83l2-35.88H1545l2,35.88h-5.83l-1.46-5.84c-3.5-13.71-5.83-18.67-32.67-18.67h-16.63v75c0,29.17,3.8,34.13,23.34,34.13v5.83h-67.38v-5.83c19.54,0,23.34-5,23.34-34.13V275Z"/><path class="cls-1" d="M1627,381.77c20.41,0,35.58-11.66,35.58-37V303.31c0-29.17-3.5-33.84-23-33.84v-5.83H1699v5.83c-19.25,0-23,4.67-23,33.84v39.37c0,34.13-23.63,51.93-52.21,51.93s-51.92-17.8-51.92-51.93V303.31c0-29.17-3.51-33.84-23-33.84v-5.83h66.8v5.83c-19.25,0-23,4.67-23,33.84v41.42C1592.58,370.11,1606.58,381.77,1627,381.77Z"/><path class="cls-1" d="M1711.31,269.47v-5.83h35.88l77.58,92.17v-52.5c0-29.17-3.5-33.84-23-33.84v-5.83h56.88v5.83c-19.55,0-23,4.67-23,33.84v91.3H1830l-84.88-101.8V350c0,29.17,3.5,34.13,23,34.13v5.83h-56.87v-5.83c19.54,0,23-5,23-34.13V303.31C1734.35,274.14,1730.85,269.47,1711.31,269.47Z"/><path class="cls-1" d="M1875.54,389.94v-5.83c19.54,0,23-5,23-34.13V303.31c0-29.17-3.5-33.84-23-33.84v-5.83h66.8v5.83c-19.55,0-23,4.67-23,33.84V350c0,29.17,3.5,34.13,23,34.13v5.83Z"/><path class="cls-1" d="M1962.17,384.11c19.55,0,23-5,23-34.13V303.31c0-29.17-3.5-33.84-23-33.84v-5.83H2024c49.59,0,71.18,28.58,71.18,63,0,34.71-21.59,63.3-71.18,63.3h-61.84Zm62.72-110h-19V357c0,19,2,22.17,16.62,22.17h2.34c38.5,0,46.08-29.17,46.08-52.51C2071,303.6,2063.39,274.14,2024.89,274.14Z"/><path class="cls-1" d="M2137.78,361.64c-7.29,17.21-7.29,22.17,15.75,22.17v6.13h-55.12v-6.13c17.79,0,20.42-3.5,30-25.37l42.88-99.76h4.08l42.88,99.76c9.62,21.87,13.12,25.37,28.58,25.37v6.13h-65.33v-6.13c21,0,23-5,15.75-22.17l-5.84-13.41h-47.83Zm29.75-68.83-19.24,44.63h38.5Z"/><path class="cls-1" d="M2253.6,384.11c19.54,0,23-5,23-34.13V303.31c0-29.17-3.5-33.84-23-33.84v-5.83h61.83c49.59,0,71.17,28.58,71.17,63,0,34.71-21.58,63.3-71.17,63.3H2253.6Zm62.71-110h-19V357c0,19,2,22.17,16.63,22.17h2.33c38.5,0,46.09-29.17,46.09-52.51C2362.4,303.6,2354.81,274.14,2316.31,274.14Z"/><path class="cls-1" d="M2513.21,360.48l1.46-5.83h5.83l-2.33,35.29H2409.08v-5.83c19.54,0,23-5,23-34.13V303.31c0-29.17-3.5-33.84-23-33.84v-5.83h102.09l2.33,35h-6.13l-1.45-5.83c-3.21-13.42-7-18.67-33.55-18.67h-19.54V317.6h1.75c29.17,0,31.5-3.5,31.5-23h5.84v56.88h-5.84c0-19.26-2.33-23.05-31.5-23.05h-1.75v16.92c0,29.17,3.5,33.84,23.05,33.84h3.49C2505.92,379.15,2509.71,374.19,2513.21,360.48Z"/><path class="cls-1" d="M2589.64,394.9c-15.17,0-27.42-7.3-32.67-10.79a23.15,23.15,0,0,0-5.54,10.79h-5.25V344.73H2552c2.34,24.79,18.09,38.79,40,38.79,12.55,0,22.46-7,22.46-19.54,0-10.21-8.16-18.09-23.91-26l-19.84-10.21c-14-7.29-23.92-19.25-23.92-35.59,0-18.37,15.17-33.25,36.46-33.25a47,47,0,0,1,27.42,8.75,16.36,16.36,0,0,0,4.67-9h5.54V308H2615c-1.75-17.51-9.63-38.22-30.63-38.22-11.38,0-21,6.13-21,16.92,0,10.21,7.58,15.75,25.38,25.09L2608.31,322c16.63,8.45,23,21.58,23,33C2631.35,378.85,2612.39,394.9,2589.64,394.9Z"/><path class="cls-2" d="M211.37,80.71a45.86,45.86,0,0,1-36,33.18,45.4,45.4,0,0,1-20.22-.83,45.89,45.89,0,1,1,56.26-32.35Z"/><path class="cls-3" d="M267.06,76.41a99.28,99.28,0,0,1-99.41,99.41h-.29a99.37,99.37,0,0,0-96.74,76.47,99.39,99.39,0,0,1,96.74-122.36h.29A98.34,98.34,0,0,0,181,129a99.48,99.48,0,0,0,83.37-75.57A99.12,99.12,0,0,1,267.06,76.41Z"/><path class="cls-2" d="M190,210c-.27,2.86-.62,5.72-1,8.6a198.33,198.33,0,0,1-24.5,71.67c-.52.87-1,1.73-1.53,2.61a198.33,198.33,0,0,1-23.59,31.87c-3.12,3.43-6.36,6.76-9.69,9.95a201,201,0,0,1-23.2,19.11A198.31,198.31,0,0,1,0,389.94,199.8,199.8,0,0,0,88.68,336a198.91,198.91,0,0,0,20.8-25.83,198.09,198.09,0,0,0,32.14-83.88,199.51,199.51,0,0,0,.95-47.33,99,99,0,0,1,24.79-3.13h.29a99.78,99.78,0,0,0,22.49-2.55c.17,1.76.29,3.52.4,5.28A199.53,199.53,0,0,1,190,210Z"/><path class="cls-4" d="M317.2,268.61a99.24,99.24,0,0,0-51.43-25.11c-1.46-.26-2.93-.46-4.39-.63a99.47,99.47,0,0,0-96.89,47.4A198.33,198.33,0,0,0,189,218.6c.4-2.88.75-5.74,1-8.6a99.42,99.42,0,0,1,116.6,38A100,100,0,0,1,317.2,268.61Z"/><path class="cls-5" d="M503.54,379.81a43.35,43.35,0,0,1,0-86.7h.11V282.88H297.12a53.58,53.58,0,1,0,0,107.16H503.65V379.81Z"/><path class="cls-4" d="M503.54,379.81a43.35,43.35,0,0,1,0-86.7h.11V282.88H297.12a53.58,53.58,0,1,0,0,107.16H503.65V379.81Z"/><path class="cls-2" d="M575.67,242.16a43.35,43.35,0,1,1,0-86.7h.1V145.23H369.25a53.58,53.58,0,1,0,0,107.16H575.77V242.16Z"/><path class="cls-3" d="M644.44,104.52a43.36,43.36,0,0,1,0-86.71h.11V7.58H438a53.58,53.58,0,1,0,0,107.16H644.55V104.51Z"/></g></g></svg>