<svg xmlns="http://www.w3.org/2000/svg" viewBox="0 0 1403.49 832.79"><defs><style>.cls-1{fill:#4aa851;}.cls-2{fill:#7bcb79;}.cls-3{fill:#53924f;}.cls-4{fill:#96c121;}</style></defs><g id="Capa_2" data-name="Capa 2"><g id="isotipo_blanco" data-name="isotipo blanco"><path class="cls-1" d="M460.25,159.24a99.9,99.9,0,1,1-192.91-52,98.81,98.81,0,0,1,10.34-24.64,99.9,99.9,0,0,1,182.57,76.68Z"/><path class="cls-2" d="M581.51,149.87A216.19,216.19,0,0,1,365.05,366.34h-.62a216.3,216.3,0,0,0-210.66,166.5A216.38,216.38,0,0,1,364.43,266.42h.62a215.25,215.25,0,0,0,29.12-1.95c89.21-12,161.16-78.3,181.54-164.56A215.91,215.91,0,0,1,581.51,149.87Z"/><path class="cls-1" d="M413.74,440.75c-.59,6.23-1.35,12.47-2.21,18.73a431.58,431.58,0,0,1-53.36,156.06c-1.14,1.89-2.24,3.78-3.32,5.7a432.88,432.88,0,0,1-51.37,69.39q-10.2,11.22-21.1,21.67a438.11,438.11,0,0,1-50.53,41.6A431.67,431.67,0,0,1,0,832.57,435,435,0,0,0,193.09,715.11a431.8,431.8,0,0,0,45.29-56.25,431,431,0,0,0,70-182.64,435.09,435.09,0,0,0,2.08-103.08,215.63,215.63,0,0,1,54-6.8h.62a217.29,217.29,0,0,0,49-5.56c.35,3.83.62,7.66.86,11.49A435,435,0,0,1,413.74,440.75Z"/><path class="cls-3" d="M690.69,568.39a215.84,215.84,0,0,0-112-54.68c-3.19-.57-6.37-1-9.56-1.38a216.66,216.66,0,0,0-211,103.21,431.58,431.58,0,0,0,53.36-156.06c.86-6.26,1.62-12.5,2.21-18.73a216.73,216.73,0,0,1,277,127.64Z"/><path class="cls-4" d="M1096.45,810.52a94.4,94.4,0,0,1,0-188.8h.23V599.45H647a116.67,116.67,0,1,0,0,233.34h449.69V810.51Z"/><path class="cls-3" d="M1096.45,810.52a94.4,94.4,0,0,1,0-188.8h.23V599.45H647a116.67,116.67,0,1,0,0,233.34h449.69V810.51Z"/><path class="cls-1" d="M1253.51,510.79a94.4,94.4,0,1,1,0-188.79h.23V299.73H804a116.67,116.67,0,1,0,0,233.33h449.7V510.79Z"/><path class="cls-2" d="M1403.26,211.07a94.4,94.4,0,0,1,0-188.8h.23V0H953.79a116.67,116.67,0,1,0,0,233.34h449.7V211.06Z"/></g></g></svg>