<svg xmlns="http://www.w3.org/2000/svg" viewBox="0 0 279.72 41.98"><defs><style>.cls-1{fill:#666;}.cls-2{fill:#9e9e9e;}.cls-3{fill:silver;}.cls-4{fill:#8d8d8d;}.cls-5{fill:#bbb;}</style></defs><g id="Capa_2" data-name="Capa 2"><g id="Capa_1-2" data-name="Capa 1"><path class="cls-1" d="M88.61,9h1.55c3.1,0,3.6-.37,3.6-3h.65v7.1h-.65c0-2.61-.5-3-3.6-3H88.61v5c0,3.1.37,3.63,2.94,3.63v.65H83.18v-.65c2.58,0,2.95-.53,2.95-3.63V5.05c0-3.1-.37-3.59-2.95-3.59V.81H97.85L98.1,4.9h-.66l-.15-.62C96.89,2.67,96.55,2,93.72,2H88.61Z"/><path class="cls-1" d="M107,18.54c2.17,0,3.78-1.24,3.78-3.94V10.2c0-3.1-.37-3.6-2.45-3.6V6h6.32V6.6c-2,0-2.45.5-2.45,3.6v4.19a5.54,5.54,0,0,1-11.07,0V10.2c0-3.1-.37-3.6-2.44-3.6V6h7.1V6.6c-2.05,0-2.45.5-2.45,3.6v4.4C103.31,17.3,104.79,18.54,107,18.54Z"/><path class="cls-1" d="M115.93,6.6V6h3.81l8.25,9.8V10.2c0-3.1-.37-3.6-2.45-3.6V6h6V6.6c-2.08,0-2.45.5-2.45,3.6v9.71h-.59l-9-10.82v6.07c0,3.1.38,3.63,2.45,3.63v.62h-6v-.62c2.08,0,2.45-.53,2.45-3.63v-5C118.38,7.1,118,6.6,115.93,6.6Z"/><path class="cls-1" d="M133.39,18.79c2.07,0,2.45-.53,2.45-3.63v-5c0-3.1-.38-3.6-2.45-3.6V6H140c5.27,0,7.57,3,7.57,6.7s-2.3,6.73-7.57,6.73h-6.57ZM140.05,7.1h-2v8.81c0,2,.21,2.35,1.76,2.35h.25c4.1,0,4.9-3.1,4.9-5.58S144.15,7.1,140.05,7.1Z"/><path class="cls-1" d="M152.05,16.4c-.77,1.83-.77,2.36,1.68,2.36v.65h-5.86v-.65c1.89,0,2.17-.37,3.19-2.7l4.56-10.6h.43l4.56,10.6c1,2.33,1.4,2.7,3,2.7v.65h-7v-.65c2.24,0,2.45-.53,1.68-2.36L157.76,15h-5.09Zm3.17-7.31-2.05,4.74h4.09Z"/><path class="cls-1" d="M175.84,19.41a4.29,4.29,0,0,0-.56-1.52,5.71,5.71,0,0,1-4.09,2.05,7.14,7.14,0,0,1-7-7.26,7.14,7.14,0,0,1,7-7.22,5.63,5.63,0,0,1,4.09,2A5,5,0,0,0,175.84,6h.59v5.37h-.62c-.59-2.88-2.24-4.71-4.62-4.71-3.48,0-4.5,3.44-4.5,6s1,6.05,4.5,6.05c2.38,0,4-1.83,4.62-4.71h.62v5.39Z"/><path class="cls-1" d="M179.09,19.41v-.62c2.08,0,2.45-.53,2.45-3.63v-5c0-3.1-.37-3.6-2.45-3.6V6h7.1V6.6c-2.07,0-2.45.5-2.45,3.6v5c0,3.1.38,3.63,2.45,3.63v.62Z"/><path class="cls-1" d="M196.09,19.94a7.44,7.44,0,0,1-7.57-7.26,7.57,7.57,0,0,1,15.13,0A7.44,7.44,0,0,1,196.09,19.94Zm0-13.3c-3.69,0-5,3.38-5,6s1.34,6.05,5,6.05,5-3.35,5-6.05S199.75,6.64,196.09,6.64Zm2.6-4.81-4.28,1.83-.15-.22L197.17.71A1.94,1.94,0,0,1,198.54,0a.88.88,0,0,1,.86.9A1.15,1.15,0,0,1,198.69,1.83Z"/><path class="cls-1" d="M205.92,6.6V6h3.81l8.25,9.8V10.2c0-3.1-.37-3.6-2.45-3.6V6h6.05V6.6c-2.08,0-2.45.5-2.45,3.6v9.71h-.59l-9-10.82v6.07c0,3.1.38,3.63,2.45,3.63v.62h-6v-.62c2.07,0,2.45-.53,2.45-3.63v-5C208.37,7.1,208,6.6,205.92,6.6Z"/><path class="cls-1" d="M94,42a10.14,10.14,0,0,1-10.35-9.83,10.35,10.35,0,0,1,20.68,0A10.13,10.13,0,0,1,94,42Zm-7.41-9.83c0,3.84,2,8.59,7.41,8.59s7.38-4.75,7.38-8.59-2-8.62-7.38-8.62S86.62,28.3,86.62,32.15Z"/><path class="cls-1" d="M113.79,40.83v.62h-7.1v-.62c2.07,0,2.45-.53,2.45-3.63v-5c0-3.1-.38-3.59-2.45-3.59V28h6.42c3.19,0,5,1.64,5,3.84s-1.77,3.81-5,3.81h-1.77V37.2C111.34,40.3,111.71,40.83,113.79,40.83Zm-.68-11.69h-1.77v5.4h1.77a2.43,2.43,0,0,0,2.54-2.67A2.46,2.46,0,0,0,113.11,29.14Z"/><path class="cls-1" d="M127.46,42a7.44,7.44,0,0,1-7.56-7.26,7.57,7.57,0,0,1,15.13,0A7.44,7.44,0,0,1,127.46,42Zm0-13.3c-3.69,0-5,3.38-5,6s1.33,6.05,5,6.05,5-3.35,5-6.05S131.12,28.68,127.46,28.68Z"/><path class="cls-1" d="M146.84,38c1.24,1.45,2.67,2.66,4.16,2.88v.62h-4l-4.22-5.77h-.87V37.2c0,3.1.38,3.63,2.45,3.63v.62h-7.1v-.62c2.08,0,2.45-.53,2.45-3.63v-5c0-3.1-.37-3.59-2.45-3.59V28h6.42c3.2,0,5,1.64,5,3.84,0,1.89-1.42,3.44-3.75,3.75Zm-3.13-8.81h-1.77v5.4h1.77a2.42,2.42,0,0,0,2.54-2.67A2.45,2.45,0,0,0,143.71,29.14Z"/><path class="cls-1" d="M154.47,29.23c-2.85,0-3.1.53-3.47,2l-.16.62h-.62l.22-3.81h13.8l.22,3.81h-.62l-.16-.62c-.37-1.46-.62-2-3.47-2h-1.77v8c0,3.1.4,3.63,2.48,3.63v.62h-7.16v-.62c2.08,0,2.48-.53,2.48-3.63v-8Z"/><path class="cls-1" d="M173,40.58c2.17,0,3.79-1.24,3.79-3.93V32.24c0-3.1-.38-3.59-2.45-3.59V28h6.32v.62c-2,0-2.45.49-2.45,3.59v4.19a5.54,5.54,0,0,1-11.07,0V32.24c0-3.1-.37-3.59-2.45-3.59V28h7.1v.62c-2,0-2.45.49-2.45,3.59v4.41C169.29,39.34,170.78,40.58,173,40.58Z"/><path class="cls-1" d="M181.92,28.65V28h3.81L194,37.82V32.24c0-3.1-.37-3.59-2.45-3.59V28h6v.62c-2.07,0-2.45.49-2.45,3.59V42h-.58l-9-10.82V37.2c0,3.1.37,3.63,2.45,3.63v.62h-6v-.62c2.07,0,2.45-.53,2.45-3.63v-5C184.37,29.14,184,28.65,181.92,28.65Z"/><path class="cls-1" d="M199.37,41.45v-.62c2.08,0,2.45-.53,2.45-3.63v-5c0-3.1-.37-3.59-2.45-3.59V28h7.1v.62c-2.07,0-2.45.49-2.45,3.59v5c0,3.1.38,3.63,2.45,3.63v.62Z"/><path class="cls-1" d="M208.58,40.83c2.08,0,2.45-.53,2.45-3.63v-5c0-3.1-.37-3.59-2.45-3.59V28h6.58c5.27,0,7.56,3,7.56,6.69s-2.29,6.73-7.56,6.73h-6.58Zm6.67-11.69h-2V38c0,2,.22,2.35,1.77,2.35h.25c4.09,0,4.9-3.1,4.9-5.58S219.34,29.14,215.25,29.14Z"/><path class="cls-1" d="M227.25,38.44c-.77,1.83-.77,2.36,1.68,2.36v.65h-5.87V40.8c1.9,0,2.18-.37,3.2-2.7l4.56-10.6h.43l4.56,10.6c1,2.33,1.39,2.7,3,2.7v.65H231.9V40.8c2.23,0,2.45-.53,1.68-2.36L233,37h-5.09Zm3.16-7.31-2,4.74h4.09Z"/><path class="cls-1" d="M239.56,40.83c2.08,0,2.45-.53,2.45-3.63v-5c0-3.1-.37-3.59-2.45-3.59V28h6.58c5.27,0,7.56,3,7.56,6.69s-2.29,6.73-7.56,6.73h-6.58Zm6.67-11.69h-2V38c0,2,.22,2.35,1.77,2.35h.25c4.09,0,4.9-3.1,4.9-5.58S250.32,29.14,246.23,29.14Z"/><path class="cls-1" d="M267.16,38.32l.15-.62h.62l-.24,3.75h-11.6v-.62c2.08,0,2.45-.53,2.45-3.63v-5c0-3.1-.37-3.59-2.45-3.59V28h10.85l.25,3.72h-.65l-.16-.62c-.34-1.43-.74-2-3.56-2h-2.08v4.62h.19c3.1,0,3.35-.37,3.35-2.45h.62v6.05h-.62c0-2-.25-2.45-3.35-2.45h-.19v1.8c0,3.1.37,3.59,2.45,3.59h.37C266.38,40.3,266.79,39.78,267.16,38.32Z"/><path class="cls-1" d="M275.28,42a6.46,6.46,0,0,1-3.47-1.15,2.61,2.61,0,0,0-.59,1.15h-.56V36.65h.62c.25,2.63,1.93,4.12,4.25,4.12a2.12,2.12,0,0,0,2.39-2.08c0-1.08-.87-1.92-2.54-2.76l-2.11-1.08a4.25,4.25,0,0,1-2.54-3.79,3.64,3.64,0,0,1,3.87-3.53,5,5,0,0,1,2.92.93,1.79,1.79,0,0,0,.49-1h.59v5.24H278c-.18-1.86-1-4.06-3.25-4.06-1.21,0-2.24.65-2.24,1.79s.81,1.68,2.7,2.67l2.08,1.09a4,4,0,0,1,2.45,3.5A4.25,4.25,0,0,1,275.28,42Z"/><path class="cls-2" d="M22.47,8.58A4.88,4.88,0,1,1,13.05,6a4.77,4.77,0,0,1,.51-1.2,4.87,4.87,0,0,1,8.91,3.74Z"/><path class="cls-3" d="M28.39,8.12A10.55,10.55,0,0,1,17.82,18.69h0a10.36,10.36,0,0,0-2.63.33,10.58,10.58,0,0,0-7.65,7.8,10.32,10.32,0,0,1-.29-2.44A10.58,10.58,0,0,1,17.79,13.81h0a11,11,0,0,0,1.42-.09,10.6,10.6,0,0,0,8.87-8A10.93,10.93,0,0,1,28.39,8.12Z"/><path class="cls-2" d="M20.2,22.32c0,.31-.07.61-.11.92a21.25,21.25,0,0,1-2.6,7.62l-.17.27a20.88,20.88,0,0,1-2.5,3.39c-.34.37-.68.72-1,1.06a21.65,21.65,0,0,1-2.47,2A21,21,0,0,1,0,41.45a21.27,21.27,0,0,0,9.43-5.73A21,21,0,0,0,11.64,33a21.06,21.06,0,0,0,3.41-8.92,21.24,21.24,0,0,0,.11-5,10.36,10.36,0,0,1,2.63-.33h0a10.49,10.49,0,0,0,2.39-.27c0,.19,0,.37,0,.56A20.73,20.73,0,0,1,20.2,22.32Z"/><path class="cls-4" d="M33.72,28.55a10.6,10.6,0,0,0-5.47-2.67l-.46-.06a10.56,10.56,0,0,0-10.3,5,21.25,21.25,0,0,0,2.6-7.62c0-.31.08-.61.11-.92a10.43,10.43,0,0,1,5.06-.53,10.64,10.64,0,0,1,8.46,6.76Z"/><path class="cls-5" d="M53.53,40.37a4.61,4.61,0,1,1,0-9.21h0V30.07h-22a5.7,5.7,0,0,0,0,11.39h22V40.37Z"/><path class="cls-4" d="M53.53,40.37a4.61,4.61,0,1,1,0-9.21h0V30.07h-22a5.7,5.7,0,0,0,0,11.39h22V40.37Z"/><path class="cls-2" d="M61.19,25.74a4.61,4.61,0,0,1,0-9.21h0V15.44h-22a5.7,5.7,0,0,0,0,11.39h22V25.74Z"/><path class="cls-3" d="M68.51,11.11a4.61,4.61,0,0,1,0-9.22h0V.81h-22a5.7,5.7,0,0,0,0,11.39h22V11.11Z"/></g></g></svg>