<svg xmlns="http://www.w3.org/2000/svg" viewBox="0 0 152.55 166.01"><defs><style>.cls-1{fill:#4aa851;}.cls-2{fill:#7bcb79;}.cls-3{fill:#53924f;}</style></defs><g id="Capa_2" data-name="Capa 2"><g id="Capa_1-2" data-name="Capa 1"><path class="cls-1" d="M48.43,13.25A10.51,10.51,0,1,1,41,.37,10.53,10.53,0,0,1,48.43,13.25Z"/><path class="cls-2" d="M61.19,12.27A22.79,22.79,0,0,1,43.56,34.46a23,23,0,0,1-5.15.58h-.07A22.78,22.78,0,0,0,16.18,52.56a22.77,22.77,0,0,1,22.16-28h.07a23.71,23.71,0,0,0,3.06-.2A22.82,22.82,0,0,0,60.58,7,22.81,22.81,0,0,1,61.19,12.27Z"/><path class="cls-1" d="M43.53,42.87c-.06.66-.14,1.32-.23,2a45.31,45.31,0,0,1-5.61,16.42c-.12.2-.24.4-.35.6a45.92,45.92,0,0,1-5.41,7.31q-1.07,1.17-2.22,2.28a45.43,45.43,0,0,1-5.32,4.37A45.37,45.37,0,0,1,0,84.1,45.75,45.75,0,0,0,20.32,71.74a45.35,45.35,0,0,0,4.76-5.92A45.41,45.41,0,0,0,32.45,46.6a45.34,45.34,0,0,0,.21-10.84A22.73,22.73,0,0,1,38.34,35h.07a23,23,0,0,0,5.15-.58c0,.4.07.81.1,1.21A45.67,45.67,0,0,1,43.53,42.87Z"/><path class="cls-3" d="M72.67,56.3a22.74,22.74,0,0,0-11.78-5.75c-.33-.06-.67-.11-1-.15a22.82,22.82,0,0,0-22.2,10.86A45.31,45.31,0,0,0,43.3,44.84c.09-.65.17-1.31.23-2a22.7,22.7,0,0,1,10.92-1.15,22.78,22.78,0,0,1,15.8,9.87A22.84,22.84,0,0,1,72.67,56.3Z"/><path class="cls-3" d="M152.55,54.19V166H111.44V54.19a20.56,20.56,0,1,1,41.11,0Z"/><path class="cls-1" d="M99.75,81.86V166H58.65V81.86a20.55,20.55,0,1,1,41.1,0Z"/><path class="cls-2" d="M47,108.25V166H5.85V108.25a20.55,20.55,0,1,1,41.1,0Z"/></g></g></svg>