<svg xmlns="http://www.w3.org/2000/svg" viewBox="0 0 205.5 125.69"><defs><style>.cls-1{fill:#7bcb79;}.cls-2{fill:#53924f;}.cls-3{fill:#4aa851;}</style></defs><g id="Capa_2" data-name="Capa 2"><g id="Capa_1-2" data-name="Capa 1"><path class="cls-1" d="M104.85,99.32a13.79,13.79,0,1,1,22.58,15.82l0,0,2.67,1.87,63.09-90.21a17,17,0,1,0-27.9-19.56l-63.1,90.21,2.66,1.87Z"/><path class="cls-1" d="M41.59,125.69,67.35,88.86A17,17,0,1,0,39.45,69.3L0,125.69Z"/><path class="cls-2" d="M165.68,125.69l36.73-52.51a17,17,0,1,0-27.9-19.56l-50.42,72.07Z"/><path class="cls-3" d="M124.38,125.69l14.19-20.29a17,17,0,1,0-27.9-19.56L82.79,125.69Z"/><path class="cls-2" d="M83.06,125.69,128.32,61a17,17,0,1,0-27.91-19.56L41.47,125.69Z"/></g></g></svg>