<svg xmlns="http://www.w3.org/2000/svg" xmlns:xlink="http://www.w3.org/1999/xlink" viewBox="0 0 2560.64 2138.91"><defs><style>.cls-1{fill:none;}.cls-2{clip-path:url(#clip-path);}.cls-3{clip-path:url(#clip-path-2);}.cls-4{fill:#53924f;}.cls-5{fill:#4aa851;}.cls-6{fill:#fff;}.cls-7{fill:#7bcb79;}</style><clipPath id="clip-path" transform="translate(580.31 587.3)"><rect class="cls-1" width="1011.82" height="715.43"/></clipPath><clipPath id="clip-path-2" transform="translate(580.31 587.3)"><polygon class="cls-1" points="1216.68 751.23 37.09 1027.28 -117.48 25.39 995.39 -257.95 1294.8 56.89 1216.68 751.23"/></clipPath></defs><g id="Capa_2" data-name="Capa 2"><g id="Capa_1-2" data-name="Capa 1"><g class="cls-2"><g class="cls-3"><path class="cls-4" d="M589.22,473.2A120.72,120.72,0,0,0,391.75,334.28c-.06.08-.11.17-.16.25l-24.29-15L716.12-176.28A149.19,149.19,0,0,1,924-212.49,149.19,149.19,0,0,1,960.17-4.59L612.34,489.83,589,473.44Z" transform="translate(580.31 587.3)"/><path class="cls-5" d="M-94.44,419.22A120.73,120.73,0,0,0-123.72,251,120.72,120.72,0,0,0-291.91,280.3l-.17.24-23.3-16.39L239-523.92a149.19,149.19,0,0,1,207.87-36.2,149.2,149.2,0,0,1,36.19,207.9L-71.32,435.85l-23.3-16.39Z" transform="translate(580.31 587.3)"/><path class="cls-5" d="M143.62,589.06A120.72,120.72,0,0,0-53.85,450.14l-.17.25L-77.31,434,374.13-207.71c47.43-67.41,263.58-112.38,331-65S665.62-103.42,618.19-36L166.74,605.7l-23.3-16.39Z" transform="translate(580.31 587.3)"/><path class="cls-6" d="M54,766l24.29,15,.17-.25A120.72,120.72,0,1,1,275.89,919.69l-.18.24L299,936.32,646.84,441.9A149.2,149.2,0,1,0,402.78,270.2L54,766" transform="translate(580.31 587.3)"/><path class="cls-7" d="M-359.38,785.27a120.73,120.73,0,0,0-29.27-168.2,120.73,120.73,0,0,0-168.2,29.27l-.16.25-23.3-16.39L-25.89-157.87A149.19,149.19,0,0,1,182-194.08a149.2,149.2,0,0,1,36.18,207.9L-336.26,801.9l-23.3-16.39Z" transform="translate(580.31 587.3)"/><path class="cls-4" d="M-205.55,1084.91a120.72,120.72,0,0,0-29.28-168.19A120.71,120.71,0,0,0-403,946l-.17.25-23.3-16.39L25,288.14A149.2,149.2,0,1,1,269,459.84l-451.45,641.7-23.3-16.39Z" transform="translate(580.31 587.3)"/><path class="cls-6" d="M85.78,1189.42a120.73,120.73,0,0,0-29.27-168.2,120.73,120.73,0,0,0-168.2,29.28l-.17.25-24.28-15L212.68,539.93a149.2,149.2,0,1,1,244.05,171.7L108.9,1206.05l-23.3-16.39Z" transform="translate(580.31 587.3)"/><path class="cls-7" d="M769.57,734.6A120.72,120.72,0,0,0,572.1,595.67l-.17.25-23.3-16.39,554.42-788.07a149.2,149.2,0,0,1,207.88-36.21,149.2,149.2,0,0,1,36.18,207.9L792.69,751.23l-23.3-16.39Z" transform="translate(580.31 587.3)"/><path class="cls-4" d="M1009.1,904A120.72,120.72,0,1,0,811.63,765.05a2.13,2.13,0,0,0-.16.25l-23.3-16.39L1239.62,107.2c47.42-67.42,263.58-112.39,331-65s-39.48,169.26-86.91,236.67L1032.22,920.6l-23.3-16.39Z" transform="translate(580.31 587.3)"/><path class="cls-5" d="M1582.18,605.68a120.72,120.72,0,0,0-197.47-138.92l-.17.25-24.28-15L1709.08-43.8a149.2,149.2,0,1,1,244.05,171.69L1605.3,622.32,1582,605.93Z" transform="translate(580.31 587.3)"/><path class="cls-4" d="M1270.68,1050a120.72,120.72,0,0,0-197.47-138.92l-.17.25-24.29-15L1397.57,400.5a149.2,149.2,0,1,1,244.06,171.69L1293.8,1066.62l-23.3-16.4Z" transform="translate(580.31 587.3)"/><path class="cls-5" d="M377.66,1290.82A120.72,120.72,0,0,0,180.19,1151.9c-.06.08-.11.17-.16.25l-23.3-16.39L711.15,347.69A149.2,149.2,0,1,1,955.2,519.38L400.78,1307.46l-23.3-16.4C377.54,1291,377.6,1290.91,377.66,1290.82Z" transform="translate(580.31 587.3)"/><path class="cls-7" d="M930,1535a120.72,120.72,0,1,0-197.47-138.92l-.17.25-24.29-15L1056.9,885.49A149.2,149.2,0,1,1,1301,1057.18L953.13,1551.6l-23.3-16.39Z" transform="translate(580.31 587.3)"/></g></g></g></g></svg>