<svg xmlns="http://www.w3.org/2000/svg" viewBox="0 0 132.03 107.58"><defs><style>.cls-1{fill:#efefef;}.cls-2{fill:#4aa851;}.cls-3{fill:#7bcb79;}.cls-4{fill:#53924f;}</style></defs><g id="Capa_2" data-name="Capa 2"><g id="Capa_1-2" data-name="Capa 1"><path class="cls-1" d="M91.23,107.58l34.06-48.76A37.4,37.4,0,1,0,64,16L0,107.58Z"/><path class="cls-2" d="M88.87,30.93a8.67,8.67,0,1,1-16.75-4.51,8.88,8.88,0,0,1,.9-2.14,8.67,8.67,0,0,1,15.85,6.65Z"/><path class="cls-3" d="M99.39,30.12A18.79,18.79,0,0,1,80.6,48.91h0a18.47,18.47,0,0,0-4.68.59,18.79,18.79,0,0,0-13.6,13.86A18.75,18.75,0,0,1,80.55,40.24h0a19.2,19.2,0,0,0,2.53-.17A18.82,18.82,0,0,0,98.89,25.79,18.73,18.73,0,0,1,99.39,30.12Z"/><path class="cls-2" d="M84.83,55.36c0,.55-.12,1.09-.19,1.63A37.57,37.57,0,0,1,80,70.53c-.1.17-.2.33-.29.5a37.83,37.83,0,0,1-4.46,6c-.59.65-1.2,1.28-1.83,1.88A37.94,37.94,0,0,1,69,82.54a37.47,37.47,0,0,1-20.12,6.83A37.79,37.79,0,0,0,65.68,79.18,37.8,37.8,0,0,0,75.87,49.5a18.47,18.47,0,0,1,4.68-.59h0a18.67,18.67,0,0,0,4.26-.49c0,.34,0,.67.07,1A38.09,38.09,0,0,1,84.83,55.36Z"/><path class="cls-4" d="M108.86,66.44a18.71,18.71,0,0,0-9.71-4.74l-.83-.12a18.8,18.8,0,0,0-18.31,9A37.57,37.57,0,0,0,84.64,57c.07-.54.14-1.08.19-1.63a18.8,18.8,0,0,1,14.25.58,18.8,18.8,0,0,1,9.78,10.5Z"/></g></g></svg>