<svg xmlns="http://www.w3.org/2000/svg" viewBox="0 0 14.11 51.45"><defs><style>.cls-1,.cls-2{fill:none;stroke:#53924e;stroke-miterlimit:10;}.cls-1{stroke-width:0.8px;}.cls-2{stroke-width:0.89px;}</style></defs><g id="Capa_2" data-name="Capa 2"><g id="Capa_1-2" data-name="Capa 1"><circle class="cls-1" cx="7.06" cy="44.4" r="6.66"/><ellipse class="cls-1" cx="7.02" cy="44.38" rx="3.71" ry="6.65"/><path class="cls-1" d="M2,48.9a9.11,9.11,0,0,1,5-1.35,9.13,9.13,0,0,1,5.07,1.38"/><path class="cls-1" d="M12.09,40a9.19,9.19,0,0,1-5,1.34A9.13,9.13,0,0,1,2,40"/><line class="cls-1" x1="7.02" y1="37.7" x2="7.02" y2="51.03"/><line class="cls-1" x1="13.69" y1="44.37" x2="0.36" y2="44.37"/><rect class="cls-1" x="1.01" y="21.39" width="12.1" height="8.04" rx="1.22"/><path class="cls-1" d="M1.56,21.63,6.43,25.4a.77.77,0,0,0,.91,0l5.21-3.79"/><path id="path4-8" class="cls-2" d="M4.5.46H3.85A4,4,0,0,0,2.5.85,4.11,4.11,0,0,0,1.14,2.33,1.58,1.58,0,0,0,1,3.57a13.47,13.47,0,0,0,8.72,8.77,1.79,1.79,0,0,0,1.43-.15,4.65,4.65,0,0,0,.87-.64,3.86,3.86,0,0,0,1.12-2.11.3.3,0,0,0-.09-.28.25.25,0,0,0-.14-.08L9.77,8.29a.3.3,0,0,0-.37.22l-.29,1A.47.47,0,0,1,9,9.63a.32.32,0,0,1-.45,0L8.26,9.4a17.49,17.49,0,0,1-4.07-4l-.34-.48a.31.31,0,0,1,0-.45A.42.42,0,0,1,4,4.35l.6-.11a.34.34,0,0,0,.26-.32L4.79.77a.32.32,0,0,0-.1-.21A.3.3,0,0,0,4.5.46Z"/></g></g></svg>