<svg xmlns="http://www.w3.org/2000/svg" viewBox="0 0 735.6 729.64"><defs><style>.cls-1{fill:#53924f;}.cls-2{fill:#7bcb79;}.cls-3{fill:#4aa851;}</style></defs><g id="Capa_2" data-name="Capa 2"><g id="Capa_1-2" data-name="Capa 1"><path class="cls-1" d="M276.13,36.71H385.75a27.72,27.72,0,0,1,27.72,27.72v0a27.72,27.72,0,0,1-27.72,27.72H276.13a0,0,0,0,1,0,0V36.71A0,0,0,0,1,276.13,36.71Z" transform="translate(94.25 309.92) rotate(-55)"/><path class="cls-2" d="M216.33,122.11H326a27.72,27.72,0,0,1,27.72,27.72v0A27.72,27.72,0,0,1,326,177.54H216.33a0,0,0,0,1,0,0V122.11A0,0,0,0,1,216.33,122.11Z" transform="translate(-1.2 297.35) rotate(-55)"/><path class="cls-3" d="M163.37,197.75H273a27.72,27.72,0,0,1,27.72,27.72v0A27.72,27.72,0,0,1,273,253.19H163.37a0,0,0,0,1,0,0V197.75a0,0,0,0,1,0,0Z" transform="translate(-85.75 286.22) rotate(-55)"/><path class="cls-2" d="M345.34,33.55H455a27.72,27.72,0,0,1,27.72,27.72v0A27.72,27.72,0,0,1,455,89H345.34a0,0,0,0,1,0,0V33.55a0,0,0,0,1,0,0Z" transform="translate(126.36 365.27) rotate(-55)"/><path class="cls-3" d="M285.55,118.95H395.18a27.72,27.72,0,0,1,27.72,27.72v0a27.72,27.72,0,0,1-27.72,27.72H285.55a0,0,0,0,1,0,0V118.95A0,0,0,0,1,285.55,118.95Z" transform="translate(30.91 352.7) rotate(-55)"/><path class="cls-1" d="M232.58,194.59H342.21a27.72,27.72,0,0,1,27.72,27.72v0A27.72,27.72,0,0,1,342.21,250H232.58a0,0,0,0,1,0,0V194.59a0,0,0,0,1,0,0Z" transform="translate(-53.64 341.57) rotate(-55)"/><path class="cls-1" d="M366.31,99.86H475.94a27.72,27.72,0,0,1,27.72,27.72v0a27.72,27.72,0,0,1-27.72,27.72H366.31a0,0,0,0,1,0,0V99.86A0,0,0,0,1,366.31,99.86Z" transform="translate(80.98 410.72) rotate(-55)"/><path class="cls-2" d="M306.52,185.26H416.15A27.72,27.72,0,0,1,443.86,213v0a27.72,27.72,0,0,1-27.72,27.72H306.52a0,0,0,0,1,0,0V185.26A0,0,0,0,1,306.52,185.26Z" transform="translate(-14.47 398.16) rotate(-55)"/><path class="cls-3" d="M253.55,260.9H363.18a27.72,27.72,0,0,1,27.72,27.72v0a27.72,27.72,0,0,1-27.72,27.72H253.55a0,0,0,0,1,0,0V260.9a0,0,0,0,1,0,0Z" transform="translate(-99.02 387.03) rotate(-55)"/><path class="cls-2" d="M435.53,96.7H545.16a27.72,27.72,0,0,1,27.72,27.72v0a27.72,27.72,0,0,1-27.72,27.72H435.53a0,0,0,0,1,0,0V96.7A0,0,0,0,1,435.53,96.7Z" transform="translate(113.09 466.07) rotate(-55)"/><path class="cls-3" d="M375.74,182.1H485.36a27.72,27.72,0,0,1,27.72,27.72v0a27.72,27.72,0,0,1-27.72,27.72H375.74a0,0,0,0,1,0,0V182.1a0,0,0,0,1,0,0Z" transform="translate(17.64 453.51) rotate(-55)"/><path class="cls-1" d="M322.77,257.74H432.4a27.72,27.72,0,0,1,27.72,27.72v0a27.72,27.72,0,0,1-27.72,27.72H322.77a0,0,0,0,1,0,0V257.74A0,0,0,0,1,322.77,257.74Z" transform="translate(-66.91 442.38) rotate(-55)"/><path class="cls-1" d="M456.31,162.88H565.94a27.72,27.72,0,0,1,27.72,27.72v0a27.72,27.72,0,0,1-27.72,27.72H456.31a0,0,0,0,1,0,0V162.88a0,0,0,0,1,0,0Z" transform="translate(67.74 511.31) rotate(-55)"/><path class="cls-2" d="M396.51,248.28H506.14A27.72,27.72,0,0,1,533.86,276v0a27.72,27.72,0,0,1-27.72,27.72H396.51a0,0,0,0,1,0,0V248.28A0,0,0,0,1,396.51,248.28Z" transform="matrix(0.57, -0.82, 0.82, 0.57, -27.71, 498.75)"/><path class="cls-3" d="M343.55,323.92H453.18a27.72,27.72,0,0,1,27.72,27.72v0a27.72,27.72,0,0,1-27.72,27.72H343.55a0,0,0,0,1,0,0V323.92a0,0,0,0,1,0,0Z" transform="translate(-112.26 487.62) rotate(-55)"/><path class="cls-2" d="M525.53,159.72H635.15a27.72,27.72,0,0,1,27.72,27.72v0a27.72,27.72,0,0,1-27.72,27.72H525.53a0,0,0,0,1,0,0V159.72a0,0,0,0,1,0,0Z" transform="translate(99.84 566.66) rotate(-55)"/><path class="cls-3" d="M465.73,245.11H575.36a27.72,27.72,0,0,1,27.72,27.72v0a27.72,27.72,0,0,1-27.72,27.72H465.73a0,0,0,0,1,0,0V245.11A0,0,0,0,1,465.73,245.11Z" transform="translate(4.39 554.1) rotate(-55)"/><path class="cls-1" d="M412.77,320.75H522.39a27.72,27.72,0,0,1,27.72,27.72v0a27.72,27.72,0,0,1-27.72,27.72H412.77a0,0,0,0,1,0,0V320.75a0,0,0,0,1,0,0Z" transform="translate(-80.15 542.97) rotate(-55)"/><path class="cls-1" d="M546.5,226H656.12a27.72,27.72,0,0,1,27.72,27.72v0a27.72,27.72,0,0,1-27.72,27.72H546.5a0,0,0,0,1,0,0V226A0,0,0,0,1,546.5,226Z" transform="translate(54.47 612.12) rotate(-55)"/><path class="cls-2" d="M486.7,311.43H596.33A27.72,27.72,0,0,1,624,339.14v0a27.72,27.72,0,0,1-27.72,27.72H486.7a0,0,0,0,1,0,0V311.43a0,0,0,0,1,0,0Z" transform="translate(-40.98 599.55) rotate(-55)"/><path class="cls-3" d="M433.74,387.07H543.36a27.72,27.72,0,0,1,27.72,27.72v0a27.72,27.72,0,0,1-27.72,27.72H433.74a0,0,0,0,1,0,0V387.07a0,0,0,0,1,0,0Z" transform="translate(-125.53 588.42) rotate(-55)"/><path class="cls-2" d="M615.71,222.87H725.34a27.72,27.72,0,0,1,27.72,27.72v0a27.72,27.72,0,0,1-27.72,27.72H615.71a0,0,0,0,1,0,0V222.87A0,0,0,0,1,615.71,222.87Z" transform="matrix(0.57, -0.82, 0.82, 0.57, 86.57, 667.47)"/><path class="cls-3" d="M555.92,308.26H665.55A27.72,27.72,0,0,1,693.26,336v0a27.72,27.72,0,0,1-27.72,27.72H555.92a0,0,0,0,1,0,0V308.26A0,0,0,0,1,555.92,308.26Z" transform="translate(-8.88 654.91) rotate(-55)"/><path class="cls-1" d="M503,383.9H612.58a27.72,27.72,0,0,1,27.72,27.72v0a27.72,27.72,0,0,1-27.72,27.72H503a0,0,0,0,1,0,0V383.9A0,0,0,0,1,503,383.9Z" transform="translate(-93.43 643.77) rotate(-55)"/><path class="cls-1" d="M106.18,279.42H215.81a27.72,27.72,0,0,1,27.72,27.72v0a27.72,27.72,0,0,1-27.72,27.72H106.18a0,0,0,0,1,0,0V279.42A0,0,0,0,1,106.18,279.42Z" transform="translate(-177.03 274.2) rotate(-55)"/><path class="cls-2" d="M46.39,364.82H156a27.72,27.72,0,0,1,27.72,27.72v0A27.72,27.72,0,0,1,156,420.25H46.39a0,0,0,0,1,0,0V364.82a0,0,0,0,1,0,0Z" transform="translate(-272.48 261.64) rotate(-55)"/><path class="cls-3" d="M-6.58,440.46H103a27.72,27.72,0,0,1,27.72,27.72v0A27.72,27.72,0,0,1,103,495.89H-6.58a0,0,0,0,1,0,0V440.46a0,0,0,0,1,0,0Z" transform="translate(-357.03 250.5) rotate(-55)"/><path class="cls-2" d="M175.4,276.26H285A27.72,27.72,0,0,1,312.74,304v0A27.72,27.72,0,0,1,285,331.69H175.4a0,0,0,0,1,0,0V276.26A0,0,0,0,1,175.4,276.26Z" transform="translate(-144.92 329.55) rotate(-55)"/><path class="cls-3" d="M115.6,361.65H225.23a27.72,27.72,0,0,1,27.72,27.72v0a27.72,27.72,0,0,1-27.72,27.72H115.6a0,0,0,0,1,0,0V361.65a0,0,0,0,1,0,0Z" transform="translate(-240.37 316.99) rotate(-55)"/><path class="cls-1" d="M62.64,437.3H172.26A27.72,27.72,0,0,1,200,465v0a27.72,27.72,0,0,1-27.72,27.72H62.64a0,0,0,0,1,0,0V437.3A0,0,0,0,1,62.64,437.3Z" transform="translate(-324.92 305.86) rotate(-55)"/><path class="cls-1" d="M196.37,342.57H306a27.72,27.72,0,0,1,27.72,27.72v0A27.72,27.72,0,0,1,306,398H196.37a0,0,0,0,1,0,0V342.57a0,0,0,0,1,0,0Z" transform="translate(-190.3 375.01) rotate(-55)"/><path class="cls-2" d="M136.57,428H246.2a27.72,27.72,0,0,1,27.72,27.72v0A27.72,27.72,0,0,1,246.2,483.4H136.57a0,0,0,0,1,0,0V428A0,0,0,0,1,136.57,428Z" transform="translate(-285.75 362.44) rotate(-55)"/><path class="cls-3" d="M83.61,503.61H193.24A27.72,27.72,0,0,1,221,531.33v0A27.72,27.72,0,0,1,193.24,559H83.61a0,0,0,0,1,0,0V503.61a0,0,0,0,1,0,0Z" transform="translate(-370.3 351.31) rotate(-55)"/><path class="cls-2" d="M265.59,339.41H375.21a27.72,27.72,0,0,1,27.72,27.72v0a27.72,27.72,0,0,1-27.72,27.72H265.59a0,0,0,0,1,0,0V339.41A0,0,0,0,1,265.59,339.41Z" transform="translate(-158.2 430.36) rotate(-55)"/><path class="cls-3" d="M205.79,424.8H315.42a27.72,27.72,0,0,1,27.72,27.72v0a27.72,27.72,0,0,1-27.72,27.72H205.79a0,0,0,0,1,0,0V424.8a0,0,0,0,1,0,0Z" transform="translate(-253.64 417.79) rotate(-55)"/><path class="cls-1" d="M152.83,500.45H262.45a27.72,27.72,0,0,1,27.72,27.72v0a27.72,27.72,0,0,1-27.72,27.72H152.83a0,0,0,0,1,0,0V500.45A0,0,0,0,1,152.83,500.45Z" transform="translate(-338.19 406.66) rotate(-55)"/><path class="cls-1" d="M286.36,405.59H396a27.72,27.72,0,0,1,27.72,27.72v0A27.72,27.72,0,0,1,396,461H286.36a0,0,0,0,1,0,0V405.59A0,0,0,0,1,286.36,405.59Z" transform="translate(-203.55 475.6) rotate(-55)"/><path class="cls-2" d="M226.57,491H336.2a27.72,27.72,0,0,1,27.72,27.72v0a27.72,27.72,0,0,1-27.72,27.72H226.57a0,0,0,0,1,0,0V491A0,0,0,0,1,226.57,491Z" transform="translate(-298.99 463.03) rotate(-55)"/><path class="cls-3" d="M173.6,566.62H283.23a27.72,27.72,0,0,1,27.72,27.72v0a27.72,27.72,0,0,1-27.72,27.72H173.6a0,0,0,0,1,0,0V566.62A0,0,0,0,1,173.6,566.62Z" transform="translate(-383.54 451.9) rotate(-55)"/><path class="cls-2" d="M355.58,402.42H465.21a27.72,27.72,0,0,1,27.72,27.72v0a27.72,27.72,0,0,1-27.72,27.72H355.58a0,0,0,0,1,0,0V402.42a0,0,0,0,1,0,0Z" transform="translate(-171.44 530.95) rotate(-55)"/><path class="cls-3" d="M295.79,487.82H405.41a27.72,27.72,0,0,1,27.72,27.72v0a27.72,27.72,0,0,1-27.72,27.72H295.79a0,0,0,0,1,0,0V487.82a0,0,0,0,1,0,0Z" transform="translate(-266.89 518.38) rotate(-55)"/><path class="cls-1" d="M242.82,563.46H352.45a27.72,27.72,0,0,1,27.72,27.72v0a27.72,27.72,0,0,1-27.72,27.72H242.82a0,0,0,0,1,0,0V563.46a0,0,0,0,1,0,0Z" transform="translate(-351.44 507.25) rotate(-55)"/><path class="cls-1" d="M376.55,468.74H486.18a27.72,27.72,0,0,1,27.72,27.72v0a27.72,27.72,0,0,1-27.72,27.72H376.55a0,0,0,0,1,0,0V468.74a0,0,0,0,1,0,0Z" transform="translate(-216.82 576.41) rotate(-55)"/><path class="cls-2" d="M316.76,554.13H426.38a27.72,27.72,0,0,1,27.72,27.72v0a27.72,27.72,0,0,1-27.72,27.72H316.76a0,0,0,0,1,0,0V554.13A0,0,0,0,1,316.76,554.13Z" transform="translate(-312.27 563.84) rotate(-55)"/><path class="cls-3" d="M263.79,629.77H373.42a27.72,27.72,0,0,1,27.72,27.72v0a27.72,27.72,0,0,1-27.72,27.72H263.79a0,0,0,0,1,0,0V629.77a0,0,0,0,1,0,0Z" transform="translate(-396.82 552.71) rotate(-55)"/><path class="cls-2" d="M445.77,465.57H555.4a27.72,27.72,0,0,1,27.72,27.72v0A27.72,27.72,0,0,1,555.4,521H445.77a0,0,0,0,1,0,0V465.57A0,0,0,0,1,445.77,465.57Z" transform="translate(-184.71 631.76) rotate(-55)"/><path class="cls-3" d="M386,551H495.6a27.72,27.72,0,0,1,27.72,27.72v0A27.72,27.72,0,0,1,495.6,606.4H386a0,0,0,0,1,0,0V551A0,0,0,0,1,386,551Z" transform="translate(-280.16 619.19) rotate(-55)"/><path class="cls-1" d="M333,626.61H442.64a27.72,27.72,0,0,1,27.72,27.72v0A27.72,27.72,0,0,1,442.64,682H333a0,0,0,0,1,0,0V626.61a0,0,0,0,1,0,0Z" transform="translate(-364.71 608.06) rotate(-55)"/></g></g></svg>