<svg xmlns="http://www.w3.org/2000/svg" viewBox="0 0 1403.49 832.79"><defs><style>.cls-1{fill:#fff;}</style></defs><g id="Capa_2" data-name="Capa 2"><g id="isotipo_blanco" data-name="isotipo blanco"><path class="cls-1" d="M406.27,488.93c0-.07,0-.13,0-.19S406.28,488.86,406.27,488.93Z"/><path class="cls-1" d="M358.17,615.54c2.82-4.9,5.51-9.9,8.16-15C363.68,605.6,361,610.62,358.17,615.54Z"/><path class="cls-1" d="M667.64,523.58a216.43,216.43,0,0,0-237.62-88c-.25,5.26-.75,10-.75,10-.54,5.3-1.21,10.61-1.94,15.94a437,437,0,0,1-27.94,104.41A219.74,219.74,0,0,1,423,547.52a215.68,215.68,0,0,1,146.13-35.19c3.19.38,6.37.81,9.56,1.38a215.84,215.84,0,0,1,112,54.68A216.71,216.71,0,0,0,667.64,523.58Z"/><path class="cls-1" d="M368.87,595.66c.85-1.69,1.67-3.45,2.5-5.17C370.53,592.21,369.73,594,368.87,595.66Z"/><path class="cls-1" d="M1096.45,810.52a94.4,94.4,0,0,1,0-188.8h.23V599.45H647a116.67,116.67,0,1,0,0,233.34h449.69V810.51Z"/><path class="cls-1" d="M1253.51,510.79a94.4,94.4,0,1,1,0-188.79h.23V299.73H804a116.67,116.67,0,1,0,0,233.33h449.7V510.79Z"/><path class="cls-1" d="M1403.26,211.07a94.4,94.4,0,0,1,0-188.8h.23V0H953.79a116.67,116.67,0,1,0,0,233.34h449.7V211.06Z"/><path class="cls-1" d="M581.51,149.87A216.19,216.19,0,0,1,365.05,366.34h-.62a216.3,216.3,0,0,0-210.66,166.5A216.38,216.38,0,0,1,364.43,266.42h.62a215.25,215.25,0,0,0,29.12-1.95c89.21-12,161.16-78.3,181.54-164.56A215.91,215.91,0,0,1,581.51,149.87Z"/><path class="cls-1" d="M364.43,366.46A214.4,214.4,0,0,0,413,361l1.06-.24h0a217.29,217.29,0,0,1-49,5.56h-.62a215.57,215.57,0,0,0-54,6.8h0A220.67,220.67,0,0,1,364.43,366.46Z"/><path class="cls-1" d="M365,382.78a212.85,212.85,0,0,0-53.41,6.65l-.05,0a434.83,434.83,0,0,1-3.21,86.77,431,431,0,0,1-70,182.64,431.8,431.8,0,0,1-45.29,56.25A435,435,0,0,1,0,832.57,431.67,431.67,0,0,0,231.85,753.9a438.11,438.11,0,0,0,50.53-41.6q10.89-10.44,21.1-21.67a432.88,432.88,0,0,0,51.37-69.39c1.08-1.92,2.18-3.81,3.32-5.7a431.58,431.58,0,0,0,53.36-156.06c.86-6.26,1.62-12.5,2.21-18.73a433.88,433.88,0,0,0,1.37-63.66A228.12,228.12,0,0,1,365,382.78Z"/><path class="cls-1" d="M460.25,159.24a99.9,99.9,0,1,1-192.91-52,98.81,98.81,0,0,1,10.34-24.64,99.9,99.9,0,0,1,182.57,76.68Z"/></g></g></svg>